<?xml version="1.0" encoding="UTF-8"?>
<svg version="1.1" viewBox="0 0 2048 2048" width="192" height="192" xmlns="http://www.w3.org/2000/svg">
<path transform="translate(0)" d="m0 0h2048v2048h-2048z" fill="#FBFBFB"/>
<path transform="translate(1031,373)" d="m0 0 16 6 14 8 21 14 16 12 13 12 17 17 9 11 8 10 10 15 12 20 11 23 9 25 8 30 4 25 3 25v33l-4 29-6 27-11 32-11 23-13 22-12 17-10 13-11 13-7 8-11 12-8 9-8 7-11 11-8 7-14 12-12 9-3 6v12l3 42 2 16 24-1h33l18 3 17 5 19 10 6 3 11 8 11 9 12 13 12 17 8 14 3 9-3 1-2 2-2-3-2 2 4 11v7l-3-1-4-7-2 1-2-5-3-4-4-6-1-4-2-1h3l4 5v2h2v-10l-4-8-7-9v-2l-3-1-6-7v-2h-2l-4-5-2-1v-2l-4-2-12-9-13-8-19-8-16-4-17-2h-28l-14 1-23 6-12 5-11 6-16 13-5 5-7 8-9 14-2 7 11-9 16-15 7-4 2 1-2 2 5-1v3l-8 4h-2v3h-3v3h-2v2h-3v2l-5 3-3 7-3 4-1 6-4 8-2 9-4 15-1 3v16l-1 4h2l2 12-1 2h2l1 8 4 6 1 7 7 10 5 3 6 2 7 4 7 8 11 16-1 3-14-7-8-6v-2l-4-2-11-12-7-10-8-13-6-16-4-14-2-17v-22l4-24 4-12 6-11 12-14 7-7 13-10 11-7 14-6 3-3 1-7-5-49-2-8-6 2-14 11-19 14-26 20-10 9-8 7-18 18-9 11-10 13-11 17-9 16-9 20-7 22-4 24-1 17 3 22 6 22 5 12 10 17 2 5 6 9 6 8 12 12 8 7 15 11 13 5 9 3 19 3 16 1h28l35-2 18-3 10-1v-18l-3-24v-9l2-3 1-17 2 4 2 17 1 27 1 10v-25l-2-18v-12h1l4 25 3 5 3-1 1-2 11-4 11-3 12-5 15-6 7-2 4-1 5-1 3-1 2-4 2-7 3-8 1-8v-13l-3-19-1-8 2 3 4 18 1 16-2 18-4 13-7 14-12 13-16 9-13 5-5 2-1-2-8 1-8 3-5 5h-1l-1 5-2-3v-3h-2l1 26 6 66 4 34 1 11 1 27h3l-1-23-8-95 1-10h2l1-2 9-2 36-18 4-4 9-4 10-8 6-5 7-8 10-12h2l1-3h2l2-7 5-2 4-6 8-11 3-3 11-6 9-4 14-6 12-5 8-4 13-5 22-9 12-4h7l2 1-2 11-2 5v2l11-7 11-8 11-7 11-10 16-14 6-7 5-5h2l2-4 9-10 13-17 10-15 10-16 11-19 18-37 12-34 7-28 5-32 2-18 1-22v-28l-2-49-1-8 4-1 3 6 3 2 5-1 22-11 21-14 15-14 6-7h2l-1 18v57l1 39-2 8-2 4h-2l-2 4-10 8-6 2h-9l-11-4-7-7-3-8 1-14 5-6 8-4 6-2h14l13 1v-57l-2-4-6 2-12 10-13 8-15 8-9 4-2 4v11l3 32 2 34v32l-2 41-3 33-4 25-7 32-8 28-3 13-7 14-3 7-3 4v5l7-3 16-12 9-7 16-15 14-15 7-9 7-10 6-10 8-16 5-14 8-28 2-16 3 1 4 18v22l-3 17-6 21-6 15-10 19-3 5h-2l-1 5-14 22-11 17-11 16-16 23-12 17-14 19-10 13-22 28-15 16-7 8-9 9-4 5-11 9-9 8-9 7-3 4 10-4 20-7 13-4 18-3h46l17 3 15 5 15 8 10 8 10 11 9 14 4 10 2 10v13l-4 16-5 8-6 4h-5l2-6 5-12 1-5v-14l-4-13-4-7v-3h-2l-7-8-10-6-6-2-17-2-16 1-23 5-10 4-15 7-10 5-11 2v2l-15 5-13 3-17 3-16 2-30 6-1 1-9 1-7 3-1 4 6 2 5 12 5 8 6 15 2 8v19l-5 15-8 14-11 13-12 12-15 10-13 5h-4l2-4 5-6 8-7 4-2 2-4 11-12 8-13 3-7 1-5v-18l-2-8h-2l-6-10-3-3-8 1-11 7-3 1-1 3-11 7-12 6-13 5-3 2-10 3-4 2h-3v2l-22 11-11 7-13 8-6 4-7 3-17 7-16 6-17 6-15 5-24 6-10 3-19 4-30 5h-34l-24-2-19-3-21-6-17-7-18-10-11-7-16-12-13-10-7-4v-2l-6-2-16-11-12-7-8-5-8-4v-2l-6-1-21-12v-2l-4-2-3-3-3-5-8-1-8 4-11 9-12 16-6 13-3 11-1 10-4-1-3-5-1-7v-9l2-11 5-13 8-12 9-10 12-12-7 1-10-3-8-4-10-9-5-4-4-5-7-5-6-7-11-9-4-4-9-13-2-6 1-10-4-1-1-2-24-8v-2l-12-1-18-3-15-1h-18l-19 2-12 5-6 4-9 10-8 14-6 13-4-1v-8l4-19 5-12 9-14 13-13 18-12 11-5 19-7 30-8 25-6h10l14-1-5-5-15-10-5-3v-2l-5-2-6-4v-2l-5-2-10-8-11-9-1-3-5-2-5-5-13-12-9-10-12-14-14-19-13-21-9-19-6-17-4-18-2-13-1-12v-19l3-20 4-15 11-23 9-14 4-6 5-3h2l-3 9-6 17-5 21-1 9v17l4 24 8 24 10 21 8 14 4 6v2h2l3 3-7-28-5-21-3-22-1-12v-22l2-26 4-30 5-25 1-16 1-9v-4l3-1v2h4l2-9 7-14 6-15 19-38 6-10h1l-1 10-9 34-6 27-6 42-2 25v19l3 24 7 34 8 26 8 21 9 19 13 20 10 14 11 13 9 10 20 20 11 9 2 2 9 2 2 1h8l4-1h30l18 3 45 14 9 1 3-1v-3h2l-2-9-8-26-5-19-3-21-3-31v-17l3-34 5-23 8-24 6-16 7-15 11-22 13-21 13-19 12-16h2l2-4 10-13 11-12 7-8 15-16 13-13 8-7 9-9 8-7 10-9 11-9 17-16 6-8-3-15-5-45-7-55-1-12v-43l3-19 6-20 8-18 12-22 10-16 9-15 8-18 4-14 1-6v-12l-2-12-7-16-4-8z" fill="#C0282E"/>
<path transform="translate(1020,928)" d="m0 0 3 1 2 8 5 49-1 7-6 5-14 6-17 12-13 12-10 12-8 16-4 18-2 13v22l3 21 4 14 5 12 8 13 9 12 10 11 2 1v2l4 2 10 6 8 4-2-5-11-16h-2l-3-5-6-2-1-2-6-1-5-4-7-10-2-9-3-4v-8h-2l-1-14h-2v-22l3-7 4-18 1-4h2l1-4 1-7h2l1-4 2-2 2-5 2-2h3v-2h3v-2h2v-3h3v-3l8-4h2l-1-2-5 1 1-3-9 6-17 16-6 5h-2l1-7 7-11 8-10 5-5 10-9 13-9 15-7 21-6 5-1 14-1h28l17 2 16 4 19 8 16 10 13 10v2l4 2 2 4h2l7 9 5 5 7 10 2 5v7l-1 3h-2l-5-7 1 4 5 5v3l3 3 1 3 3 1 4 7 2 1-3-14-2-6 4-1 1 3 2-2h4l6 21 2 9 1 11v17l-2 17-5 23-6 16-9 19-9 14-13 16-11 12-8 7-15 12-13 9-4 1-1 3-9 4-10 2-2 2-7 1-2 2-8 2-2-7-1-9v-18h1l1 5h2l2-4 5-3 7-2h6v2l20-8 15-9 10-11 8-16 3-11 2-21-1-13-2-8 2 14v13l-2 11-2 5-2 7-5 5-4 2h-5l-3 2-13 4-25 10-13 4h-3l-1 3h-2l-1 2-4-7-3-17 2 22v41h-1l-2-30-2-35-1-5-1 15-2 1v9l3 24v16l-3 3-21 3-17 2-34 1h-20l-21-2-15-3-13-5-6-3-18-13-9-8-7-8-5-6-7-10-1-4-2-1-2-5-6-11-6-12-6-21-3-16-1-17 3-24 4-17 7-20 11-23 12-19 10-14 9-11 12-13 17-17 22-18 40-30 11-8z" fill="#C0282E"/>
<path transform="translate(1020,928)" d="m0 0 3 1 2 8 5 49-1 7-6 5-14 6-17 12-13 12-10 12-8 16-4 18-2 13v22l3 21 4 14 5 12 8 13 9 12 10 11 2 1v2l4 2 10 6 8 4-2-5-11-16-8-16-3-13v-11l3-13 7-14 8-10 9-9 15-10 10-5 7-1 2 5 8 58 7 39 6 40 1 3v17l-6 4-13 1h-27l-21 1-34-4-25-4h-7l-3-1-16-2-14-2-10-4-8-5v-2l-6-2-3-3-8-14-6-12-6-21-3-16-1-17 3-24 4-17 7-20 11-23 12-19 10-14 9-11 12-13 17-17 22-18 40-30 11-8z" fill="#FBFBFB"/>
<path transform="translate(1256,1398)" d="m0 0h12l16 7 10 8 8 8 7 11-1 3-6-10-3-3-8 1-11 7-3 1-1 3-11 7-12 6-13 5-3 2-10 3-4 2h-3v2l-22 11-11 7-13 8-6 4-7 3-17 7-16 6-17 6-15 5-24 6-10 3-19 4-30 5h-34l-24-2-19-3-21-6-17-7-18-10-11-7-16-12-13-10-7-4v-2l-6-2-16-11-12-7-8-5-8-4v-2l-6-1-21-12v-2l-4-2-3-3-3-5-8-2 3-2 13-4h25l21 6 20 9 54 27 20 8 8 3 16 16 18 13 16 8 15 4 14 2h16l25-6 15-6 16-8 27-9 11-4 42-15 9-4 30-15 22-12 14-8 11-6 17-8 10-4z" fill="#A49796"/>
<path transform="translate(1031,373)" d="m0 0 16 6 14 8 21 14 16 12 13 12 17 17 9 11 8 10 10 15v3l5 10-6 1v-2h-7l-5 4-1 3 2 1-3 3-2 7-1 4 1 2-2 5-2 9-4 2v-7l-2-8-1 19-4 23h-2l3-24v-25l-3-23-3-16-5-16-1-3h-2l1 3v17l-2 24-3 14-5 12-7 11-13 13-17 13-17 12-11 9-9 10-10 16-5 16-2 14v59l2 27 1 7 6-3 2 1-8 7h-2v3l3 1-4 3-6 1-1 2h-2l-3-17-3-31v-15l2-3 3-20-1-10-2-12-3-4-1-8-3-3-1-7h-1l1-14 1-20 1-5v-13l-1-2 2-1 4-13 1-5h2l-1-3 1-3h2v-4l2-6 1-4-1-1-1 5-4 4 1-5 2-1 6-17 4-4 4-9 2-1v7l1 1v-3l3-3 1-4 2-2 2-4 5-5v-6h3v-3h2v-2h2l1-5 1-2h-3l-1-5 2-6 1-5 4-14 1-6v-12l-2-12-7-16-4-8z" fill="#BF282E"/>
<path transform="translate(1110,450)" d="m0 0h2l4 9 4 14 4 25 1 10v25l-5 33-5 21-7 19-9 19-11 19-10 15-12 16-11 13-7 8-9 10-18 18-5 3h-3l-2-7-2-27v-59l2-14 5-16 8-13 9-11 10-9 15-11 14-10 13-11 8-8 7-11 5-12 3-14 2-24z" fill="#FBFBFB"/>
<path transform="translate(847,463)" d="m0 0 4 1 12 19 2 5h2l7 10 5 5 9 10 3 3v2h2l6 7 5 5 4 6 2 5v110l-2 16-3 6-4 5-12 9-3 1h-11l-10-4-6-5-3-4-7-1-11 8-2 2-7 1-10-3-9-8-4-6-1-8 3-8 5-6 8-5 6-2h13l5 1 1-119 1-15v-14l-1-12v-16z" fill="#F13A3E"/>
<path transform="translate(1077,1082)" d="m0 0h8l23 5 12 5 12 7 11 9 8 8 10 14 6 12 5 16 3 19v13l-2 11-2 5-2 7-5 5-4 2h-5l-3 2-13 4-25 10-13 4h-3l-1 3h-2l-1 2-4-7-4-25-7-66-4-42-1-7v-15z" fill="#FBFBFB"/>
<path transform="translate(976,1363)" d="m0 0 14 1 10 3 9 6 7 5 4 2 8 7 1 7 3 9v20l-2 10-1 4 2-4h2l-2 10-3-1-1 7-3 4h-3v2l-8 3h-6l1-2-5 2-7 2-8 1h-16l-14-3-12-6-5-3-4-1-3-2-1-4-5-8-3-10-1-10 2-12 3-7 1 2v3l4-5 3-1 5-6-7 6h-2l2-6 9-11 10-7 11-5z" fill="#C0282E"/>
<path transform="translate(884,1225)" d="m0 0 4 1 5 2v2l5 2 7 4 6 2 19 3 11 1 5 1 13 1 17 3 35 4 30-1h24l8-2 3-2 1-11h1l5 28v16l-3 3-21 3-17 2-34 1h-20l-21-2-15-3-13-5-6-3-18-13-9-8-7-8-5-6-7-10-1-4z" fill="#A49796"/>
<path transform="translate(1574,749)" d="m0 0h2l-1 18v57l1 39-2 8-2 4h-2l-2 4-10 8-6 2h-9l-11-4-7-7-3-8 1-14 5-6 8-4 6-2h14l13 1v-57l-2-4-6 2-12 10-13 8-15 8-9 4-2 4v11l3 32 2 34v32l-2 41-1 6-2-3-1-3-1-2 2-7v-5l-4-2-1-5 1-6-1-5-1-4-3 4-3 9-2 2v-24h-2l3-29 1-22v-28l-2-49-1-8 4-1 3 6 3 2 5-1 22-11 21-14 15-14z" fill="#EF3D41"/>
<path transform="translate(746,1413)" d="m0 0h8l6 4 7 2 9 5 14 10 3 2v2l4 1 27 15 5 3v2l6 1 3 2v2h3v2l4 1v2l4 1 6 4v2l4 1 16 12 8 5v2l5 2 10 7 16 8 10 3 18 4 27 4 17 1 29-1 18-3 8-1 12-3 19-5 28-8 24-8 14-6 11-5 28-14 4-3 2 1-1 4 6-3 16-9 16-8 13-6 20-7 15-8 5-3 3-6 10-5 10-1 3 4-10 3-10 7h-2l-1 3-11 7-12 6-13 5-3 2-10 3-4 2h-3v2l-22 11-11 7-13 8-6 4-7 3-17 7-16 6-17 6-15 5-24 6-10 3-19 4-30 5h-34l-24-2-19-3-21-6-17-7-18-10-11-7-16-12-13-10-7-4v-2l-6-2-16-11-12-7-8-5-8-4v-2l-6-1-21-12v-2l-4-2-3-3-3-5-4-2z" fill="#B6B1B1"/>
<path transform="translate(1114,619)" d="m0 0 1 3-4 16-12 26-13 23-7 10-13 18-13 16-9 11-9 10-1 2h-2l-1 3-5 5h-2l-2 4-15 15-8 7-11 10h-2v2l-8 6-10 9-11 9-13 12-22 18-15 14-13 12-12 12-4 5-5 5-13 15-10 13-7 9-3 3h-3l-1 3h-2v2h-2l2-5 11-18 10-15 13-18 12-14 9-11 7-7 9-11 8-7 9-10 8-7 18-18 8-7 16-15 13-12 8-7 12-11 11-11 8-7 2-3 5-3 8-8 5-6 5-5 5-6 5-5 4-5h2l2-4 10-14 8-11 10-15 8-14 5-9 5-8z" fill="#FBFBFB"/>
<path transform="translate(646,1135)" d="m0 0 7 6 17 17 11 9 2 2 9 2 2 1h8l4-1h30l18 3 45 14 9 1 3-1v-3h2l1-3 2 2 4 10 9 19 8 13 13 25-1 4-7-1-16-6-27-9-28-12-29-15-19-11-16-11-17-12-13-11-12-11-19-19z" fill="#A49695"/>
<path transform="translate(1037,448)" d="m0 0 2 1-2 6 1 2-1 2h3l-2 7h-2v2h-2l1 4h-3l-1 7-3 3h-2l-2 6h-2l-1 6-3 1v3l-3-1h2l-1-6-5 10-3 3-4 12-3 6h-2v4l3-4 1-4 2 1-1 4-2 5v3l-1 2h-2v6h-2l-1 10h-2l-1 8-3 1 2 1v16l-1 3-1 27-1 6 2 3v7l3 1 1 8 3 4 2 13 1 10-3 20-2 2v15l3 31 3 16 6-3 4-1-1-1-1-2 4-4 6-5 7-8 18-18 7-8 11-13 9-12 11-16h3l7-12 2-1 1-2h3l2-4 3 3-1 4-10 18-8 11-7 10-8 11-5 7-5 5-4 5h-2l-2 4-6 7-5 4-7 8-5 5h-3l-2 4-17 16-10 10-8 7-11 10-8 7-7 7-8 7-16 15-37 37-14 15-8 10-11 13-6 1 1-5 8-11v-2h-2v-2h2l2-4 10-13 11-12 7-8 15-16 13-13 8-7 9-9 8-7 10-9 11-9 17-16 6-8-3-15-5-45-7-55-1-12v-43l3-19 6-20 8-18 12-22 10-16 9-15z" fill="#EC4144"/>
<path transform="translate(853,499)" d="m0 0 6 5 18 22 8 10 6 8 8 11 3 7v80l3 1-4 1-10-3h-13l-9 2-5 5-8 5h-3l-1-5v-12l1-15v-73l-1-44z" fill="#FBFBFB"/>
<path transform="translate(525,933)" d="m0 0h2l-3 9-6 17-5 21-2 25-1 7 1 14 1 1 1 9 4 10 2 7 5 7 1 5-1 3 3 1 5 12 4 8-2 1 1 3-3 5-1 8 2 10 3 9 4 7 1 4h2l6 12v2h2l3 6 9 11 4 3v2l3 1 6 8 4 5-1 2-10-7-5-5-1-3h-2l-2-5-2-1-6-7-3-4v-2h-2v-2h-2l-5-5-2-5-2-1v-2h-2v-2l-3-1-1-4-7-6-2-5v-3h-2l-7-10-2-4-4-4-7-18-5-18-3-19-1-12v-19l3-20 4-15 11-23 9-14 4-6z" fill="#F5363A"/>
<path transform="translate(624,1312)" d="m0 0 9 2 15 5 27 11 33 16 21 12 16 11 9 8-1 3-22 16-5 3-8 1-10-3-8-4-10-9-5-4-4-5-7-5-6-7-11-9-4-4-9-13-2-6 1-10-4-1-1-2-14-5z" fill="#A39595"/>
<path transform="translate(1356,1163)" d="m0 0 2 1-8 7-23 16-11 7-17 10-24 12-27 11-27 9-6 1h-15l-20 20-2-1 10-11 4-5h2l1-3h2l2-7 5-2 4-6 8-11 3-3 11-6 9-4 14-6 12-5 8-4 13-5 22-9 12-4h7l2 1-2 11-2 5v2l11-7 11-8z" fill="#A49796"/>
<path transform="translate(1256,1398)" d="m0 0h12l16 7 4 4-6-2-15 1-3 2-6 1h-22l-10 3-8 4-1 2-10 4-5 3-8 5-5 3-9 5-2 2-9 5-12 7-15 9h-2v2l-11 6-7 4-15 8-10 4h-5v2l-16 6-11 4-24 4-14 2-8 2-13 2-5 1-15 1-10-1-24-6-21-9-6-3v-2l-5-2-2-4h-2v-2l-4-2-6-4v-2l-5-2-5-6-4-2v-2l-5-1-8-4-4-3-36-18-1-2 6 2 30 15 20 8 8 3 16 16 18 13 16 8 15 4 14 2h16l25-6 15-6 16-8 27-9 11-4 42-15 9-4 30-15 22-12 14-8 11-6 17-8 10-4z" fill="#896A6E"/>
<path transform="translate(1445,1303)" d="m0 0h40l14 1 16 5 16 8 11 8 11 12 9 14 4 10 2 10v13l-4 16-5 8-6 4h-5l2-6 5-12 1-5v-14l-4-13-4-7v-3h-2l-7-8-10-6-6-2-17-2-16 1-23 5-5 2-7 2-11 5-2-1 2-4 2-1-3-1-7 2v-4h2l1-2 7-1 3-1 1-3 6-2 9-5 3-2-3-6h-2l1-5 6-4 7-2 6-1h-33l-17 1-10 1 1-2 11-2z" fill="#FA3629"/>
<path transform="translate(1580,976)" d="m0 0 3 1 4 18v22l-3 17-6 21-6 15-10 19-3 5h-2l-1 5-14 22-11 17-11 16-2-1 1-6h2l1-5 2-6h2v-6l-4-5-2-4v-3l-2-1 1-2h-6l1-7 4-6 4-4v-3l15-16 7-9 7-10 6-10 8-16 5-14 8-28z" fill="#F13A3D"/>
<path transform="translate(1067,995)" d="m0 0h28l17 2 16 4 19 8 16 10 13 10v2l4 2 2 4h2l8 10 1 4-4-1-1 4-5-2-5-4v-2l-5-2-10-8-14-9-16-8-19-6-13-2-26-1-21 2-19 5-12 5-17 9-12 8-7 7-8 7-9 8h-2l1-7 7-11 8-10 5-5 10-9 13-9 15-7 21-6 5-1z" fill="#FCFCFC"/>
<path transform="translate(1025,996)" d="m0 0 4 1-4 2 2 5-17 8-13 10-7 6-5 5-9 11-6 10-2 7 11-9 16-15 7-4 2 1-2 2 5-1v3l-8 4h-2v3h-3v3h-2v2h-3v2l-5 3-3 7-3 4-1 6-4 8-2 9-4 15-1 3v16l-1 4h2l2 12-1 2h2l1 8 4 6 1 7 7 10 5 3 6 2 7 4 7 8 11 16-1 3-14-7-8-6v-2l-4-2-11-12-7-10-8-13-6-16-4-14-2-17v-22l4-24 4-12 6-11 12-14 7-7 13-10 11-7z" fill="#F93428"/>
<path transform="translate(1126,798)" d="m0 0h2l-2 4-8 10-11 14-8 8-7 8-13 13-8 7-14 12-18 14-8 6-13 10-11 7-15 11-11 9-32 24-11 9-10 9-11 9-17 17-7 9h-2l-2 4-8 10-10 15-7 13-5 9-2 2 1-6 5-11 3-7-8 13-7 14-1-3 8-17 12-19 10-14 9-11 14-15 19-19 8-7 9-7 13-10 12-9 13-10 14-10 3-1v-2l14-10 18-13 13-10 10-8 16-13 11-10h2l1-3 8-7 12-12 1-2h2l2-4 8-9 1-3 5-2-1 4h-2l-2 5h2l2-4 6-8 3-1z" fill="#FBFBFB"/>
<path transform="translate(1313,1399)" d="m0 0 5 1 8 6 7 16 3 11v19l-5 15-8 14-11 13-12 12-15 10-13 5h-4l2-4 5-6 8-7 4-2 2-4 11-12 8-13 3-7 1-5v-18l-5-13-8-11-2-4-3-5 4-4 11-2 2-4z" fill="#FA3427"/>
<path transform="translate(1074,1043)" d="m0 0h16l14 2 23 7 17 8 11 7 13 11 9 10 7 10 8 17 3 10 3 14v5h-3l-1 4v4h-2l-3-14-6-18-8-16-9-13-11-12-15-11-17-8-14-4-15-2h-24l-18 2-12 3-16 8-14 10-9 9-7 10h-2l-2 4-6 13-4-1-2 8h-2v-10l5-13 4-5 5-7 18-18 15-10 10-5 15-5 8-2z" fill="#A09090"/>
<path transform="translate(1496,788)" d="m0 0h3l3 6 3 2 5-1 8-4 2 1-7 4-3 6-3 2-1 5 6-1 7 2 7-3 3 1-11 5-6 3-2 4v11l3 32 2 34v32l-2 41-1 6-2-3-1-3-1-2 2-7v-5l-4-2-1-5 1-6-1-5-1-4-3 4-3 9-2 2v-24h-2l3-29 1-22v-28l-2-49-1-8z" fill="#C22B31"/>
<path transform="translate(726,588)" d="m0 0 2 2v98l-1 7v3l5 10 1 4v10l-4 6-6 7-8 5h-9l-10-5-3-2v-2h-2l-5-9v-7l6-12 9-6 5-2 15-2-1-74 1-28z" fill="#FB3427"/>
<path transform="translate(548,1268)" d="m0 0 17 2v5l2 7-3 1-1 7 9 1 6 5-2 4 21 3 8 2v2l-21-3-15-1h-18l-19 2-12 5-6 4-9 10-8 14-6 13-4-1v-8l4-19 5-12 9-14 13-13 16-11 6-1 7-3z" fill="#F3373B"/>
<path transform="translate(976,1363)" d="m0 0 14 1 10 3 9 6 7 5 4 2 8 7 1 7 3 9v20l-2 10-1 4 2-4h2l-2 10-3-1-1 7-3 4h-3v2l-8 3h-6l1-2-5 2-7 2-8 1h-16l-14-3-12-6-3-4 12 2 3-1 8 2 12 1 14-1 14-4 2-4 6-4 4-5 4-8 1-6v-16l-4-8-5-7 6 1 5 2-2-5-1 2-10-2-15-6-4-1h-24l-17 4-12 5-5 5h-2l2-6 9-11 10-7 11-5z" fill="#F0383C"/>
<path transform="translate(1044,974)" d="m0 0h1l2 12 24-1h33l18 3 17 5 19 10 6 3 11 8 11 9 12 13 12 17 8 14 3 9-3 1-2 2-2-3-2 2 4 11v7l-3-1-4-7-2 1-2-5-3-4-4-6-1-4-2-1h3l4 5v2h2v-10l-4-8-7-9v-2l-3-1-6-7v-2h-2l-4-5-2-1v-2l-4-2-12-9-13-8-19-8-16-4-25-3v-1l-15-2v-2l-2 1h-15l-9-1-2-2z" fill="#F7382C"/>
<path transform="translate(525,933)" d="m0 0h2l-3 9-6 17-5 21-2 25-1 7 1 14 1 1 2 21 2 1v7l-1 4 1 5h-2v5l-2 1v3l1 3-4 2-4-4-1-7h-2l-2-5-4-2-1 2-2-14v-60l5-15 11-21 9-14 5-5z" fill="#FB3427"/>
<path transform="translate(1170,1150)" d="m0 0 2 3 4 18 1 16-2 18-4 13-7 14-12 13-16 9-13 5-5 2-1-2-8 1-8 3-5 5h-1l-1 5-2-3v-3h-2v19h-1l-1-43-2-18v-12h1l4 25 3 5 3-1 1-2 11-4 11-3 12-5 15-6 7-2 4-1 5-1 3-1 2-4 2-7 3-8 1-8v-13l-3-19z" fill="#A49796"/>
<path transform="translate(866,1036)" d="m0 0 1 2-6 12-2 6 3-3-1 5-9 21-5 17-4 20-1 1-2 24v22l3 18 8 32 5 14 9 17 13 19 7 7 9 7 9 6 5 8 14 8 5 2-3 1-23-11-10-7-11-9-14-14-2-5-5-5-6-10-6-17-2-3-8-29-3-15-1-10v-10l1-3-2-5v-20l3-25 4-17 8-21h2v-2h2l2-6 9-17z" fill="#F1393D"/>
<path transform="translate(1307,575)" d="m0 0h12l5 2 3 3 10 5v2h2v10l-5 10-8 8-7 4-2 1h-13l-9-3-10-9-3-4-1-7 3-8 9-10 9-3z" fill="#FC3326"/>
<path transform="translate(1114,438)" d="m0 0h7l2 5 6 4 4 1 12 15 10 15v3l5 10-6 1v-2h-7l-5 4-1 3 2 1-3 3-2 7-1 4 1 2-2 5-2 9-4 2v-7l-2-8-1 19-4 23h-2l3-24v-25l-3-23-3-16-5-16-2-4-2-1-2-4-2-3 4 2 5 2z" fill="#F2393D"/>
<path transform="translate(670,892)" d="m0 0 17 1 8 4 2 5v12l-3 8-6 8-6 5-3 2-11 1-9-2-5-3-8-10-1-3v-9l4-8 8-7 8-3z" fill="#FA3529"/>
<path transform="translate(624,1312)" d="m0 0 9 2 15 5 15 6v2l6 2 2 1 1 5-1 6 3 5 9 11 8 7 8 8v2l4 2 8 6 17 8h6l1 3-9 6-8 1-10-3-8-4-10-9-5-4-4-5-7-5-6-7-11-9-4-4-9-13-2-6 1-10-4-1-1-2-14-5z" fill="#B6B1B1"/>
<path transform="translate(1037,448)" d="m0 0 2 1-2 6 1 2-1 2h3l-2 7h-2v2h-2l1 4h-3l-1 7-3 3h-2l-2 6h-2l-1 6-3 1v3l-3-1h2l-1-6-5 10-3 3-4 12-3 6h-2v4l3-4 1-4 2 1-1 4-2 5v3l-1 2h-2v6h-2l-1 10h-2l-1 8-3 1 2 1v16l-1 3-1 27-1 6 2 3v7l3 1 1 8 3 4 2 13 1 10-3 20-2 2v15l3 31 2 12v5l-2 1-1-6-3-19-4-37-7-55-1-12v-43l3-19 6-20 8-18 12-22 10-16 9-15z" fill="#EC4144"/>
<path transform="translate(961,1348)" d="m0 0h5l-3 2-21 11-16 12-7 10h-2l-6 12-4 9-2 7v20l4 9v2h2l1 2 3 1 5 5 5 3 4 6 3 3 3 1v2l4 2 2 4 4 3v2l4-1 3 3 8 4 16 3h22l16-4 12-6 5-1 8-7 8-10 4-7 3-9 2-11 2-1-2 17-4 11-2 5-6 8-7 6-11 4-16 6-9 3-21 1h-9l-14-2-15-4-15-6-4-1-7-6-4-8-5-5-3-7h2l-2-5-2-12v-25l4-16 8-16 12-12 8-6 17-8z" fill="#F63539"/>
<path transform="translate(1438,755)" d="m0 0h7l1 8v15l-4 9-6 8-6 2-10-1-16-4 1 22v20h-4l-1-7-1-22v-35l5-6 10-4 17-4z" fill="#FB3426"/>
<path transform="translate(1370,834)" d="m0 0h17l11 3 7 1 1 1v11l-3 10-1 2h-2l-2 4-10 9-6 1-11-1-10-5-7-7-2-5v-6l4-8 8-7z" fill="#FB3427"/>
<path transform="translate(895,1240)" d="m0 0 7 6 13 12 17 10 18 5 20 2 34 1 37-1 20-2 9-1 10-3 1-13h1l1 7v16l-3 3-21 3-17 2-34 1h-20l-21-2-15-3-13-5-6-3-18-13-9-8-7-8-4-4z" fill="#896A6E"/>
<path transform="translate(601,696)" d="m0 0 5 1-1 57-3 11-10 10-7 4h-10l-9-2-8-5-5-6v-9l5-9 10-5 13-1 19 4v-42z" fill="#FB3427"/>
<path transform="translate(1101,631)" d="m0 0 3 3-1 4-10 18-8 11-7 10-8 11-5 7-5 5-4 5h-2l-2 4-6 7-5 4-7 8-5 5h-3l-1 3-7 1v2l-5 3-5 5-8 7-5 6-5 1-4 3h-2v2l-9 6v-4l8-8 7-8 8-9 10-5 4-1-1-1-1-2 4-4 6-5 7-8 18-18 7-8 11-13 9-12 11-16h3l7-12 2-1 1-2h3z" fill="#F33D34"/>
<path transform="translate(847,463)" d="m0 0 4 1 12 19 2 5h2l7 10 5 5 9 10 3 3v2h2l6 7 5 5 4 6 2 5-1 7-1 13-1 2-4-2-4-4-6-9-10-13-9-11-11-14-1-3-3-1-6-7-5-5-1-2-1-12v-16z" fill="#FB3427"/>
<path transform="translate(1445,1303)" d="m0 0h40l14 1 16 5 11 5v2l-4-1-4-2h-9l2 2-8 4v4l2 1-1 3h-2l-6-7-6 2v2l-2 1 2 1v2l3-1h7l1 1 16 1 13 5 8 6v2l-15-6-17-2-16 1-23 5-5 2-7 2-11 5-2-1 2-4 2-1-3-1-7 2v-4h2l1-2 7-1 3-1 1-3 6-2 9-5 3-2-3-6h-2l1-5 6-4 7-2 6-1h-33l-17 1-10 1 1-2 11-2z" fill="#F4383B"/>
<path transform="translate(821,641)" d="m0 0h18l5 5 3 4 1 5 5 3-4 2-1-2v3h3v2h3l2 4v3l4 2 4 3-1 4-3-1-2-3-9-1-11 8-2 2-7 1-10-3-9-8-4-6-1-8 3-8 5-6z" fill="#FB3427"/>
<path transform="translate(595,800)" d="m0 0h1l-1 10-9 34-6 27-6 42-1 2-2-1v-14l-4-4v-3l-7 2-1 3h-2l1 3-1 7v7l-3 8-4-2-1-2 1-12 1 4h2l-1-7-2-1v-2l2-1-2-6h-1l-2-8 4-2v2h4l2-9 7-14 6-15 19-38z" fill="#EF3E41"/>
<path transform="translate(888,1227)" d="m0 0 5 1v2l5 2 7 4 6 2 19 3 11 1 5 1 13 1 17 3 35 4 30-1h24l8-2 3-2 1-11h1v15l-3 6-9 3-41 1-27-1-23-2-7-1-2-4-3 1-1 2h-7l-3-1 1-3-3-1-4 1v-2l-14-1-2-1v2h-2l-1 2-8-1-3-4-4-2v-2l-5-1-8-5-6-3z" fill="#B6B1B1"/>
<path transform="translate(684,1170)" d="m0 0 8 1 2 1h8l4-1h30l18 3 45 14 9 1 3-1v-3h2l1-3 2 2 4 10 1 5-4 3v2l-7 1-7-1 4-2-1-3-18-4-6-3-18-5-17-3h-12l-7 1h-18l-9-2-6-4-8-6z" fill="#B7B2B2"/>
<path transform="translate(903,1283)" d="m0 0 20 9 9 4 14 5 21 3 11 1 6 1 42 3 32-2 14-2h11l-1 5-13 4-12 2-14 1h-32l-35-2-20-3-24-8-18-8-9-7z" fill="#F6363A"/>
<path transform="translate(1574,749)" d="m0 0h2l-1 18h-2v8l-1 4-4 3h-3v2l-6 4-10 8-13 8-14 6-4 1-8-2h-4v-5l4-2 1-4 4-4 4-2 3-3 15-8 16-11 15-14z" fill="#FB3427"/>
<path transform="translate(1320,1165)" d="m0 0h7l2 1-2 11-2 5v2l2 1-15 9-16 9-16 8-5 2-1-5 7-8v-5l-3-1 3-1h8l1-3 4-2h5l1 1 1-2h2l1 2 2-1v-5l-5-1-16 3-28 11-24 10-10 5-7 1 3-4 11-6 9-4 14-6 12-5 8-4 13-5 22-9z" fill="#B7B2B2"/>
<path transform="translate(1125,586)" d="m0 0 4 2-1 10-5 18-10 24-4 8-3 7-6 13-2 6-1 2h-2l-1 5h-2l-1 4-2 6-1 4-1 5h-2l-1 4-5 6-5 8-3 1-6 11h-2v2l-3 3-2 3h-2v2l-3 3-3 1-1 2h-3l-1 3h-2v2l-8 7-25 25-8 7-9 8-8 7-4 4h-2v2l-8 5-6 7-2 2-11 7-6 4-2-1 16-15 14-11 7-7 5-2v-2l11-9 8-8 8-7 10-10 1-2h2l2-4 4-4h2l2-4 9-10 9-11 8-10 14-19 8-12 10-17 9-17 3-7h2l2-6 5-12 5-13 3-10v-7l-8 16-1-3 4-10 5-14h2z" fill="#F03C3F"/>
<path transform="translate(549,850)" d="m0 0h2v21l-3 9-2 4-5 4-7 4-7 6-24 12-11 1v-20l6-4 24-9 8-4 9-7 6-8 2-6z" fill="#FA3428"/>
<path transform="translate(1025,996)" d="m0 0 4 1-4 2 2 5-17 8-13 10-7 6-5 5-9 11-6 10-2 7 11-9 16-15 7-4 2 1-2 2 5-1v3l-8 4h-2v3h-3v3h-2v2h-3v2l-5 3-3 7-3 4-1 4-3 4-10-2v-2l-6 9-1 6v41h-1l-2-17v-22l4-24 4-12 6-11 12-14 7-7 13-10 11-7z" fill="#EA4144"/>
<path transform="translate(1034,779)" d="m0 0 2 1-1 5-5 5-5 6-5 2v3l-5 2v2l-6 5h-2v3l-5 3h-2l1 2 3 2-8 7h-2v2l-10 8-4 3-2-1 1-2h2l2-4 3-3-8 7-5 6-3 1-5 5-11 10-4 1-2 4-11 9-4 4-7 4-1 2h-2l-1 3-3 2h-3v2l-4-1v-2h2v-2l2-1v-2l3-1-1-2 3-1 5-5 5-6 4-3h2l2-4 5-5 6-5 5-5 4-2v-2l8-7 5-1 2-4 4-2v-2l9-6 4-4 3-2h3l2-4 4-2v-2l5-2v-2l4-3h2v-2h2v-2l5-4h2l1-3h2l2-4z" fill="#F53539"/>
<path transform="translate(804,1008)" d="m0 0h4l1 9-2 6-1 14v7l1 9 1 5v10l1 5v7h2l1 5-1 4 2 1 1 4v3l-2 1-1 10 1 11-4-2-2-7-2-1-3-9-2-4-1-8v-7l-1-5v-3-3l-3 1-1-10v-10l2-3 1-14 2-5h2l-1-2v-8l3-4 1-4h2z" fill="#F53539"/>
<path transform="translate(976,1363)" d="m0 0 14 1 10 3 9 6 10 9 3 4v3l-10-2-15-6-4-1h-24l-17 4-12 5-5 5h-2l2-6 9-11 10-7 11-5z" fill="#FBFBFB"/>
<path transform="translate(848,494)" d="m0 0 5 4 1 50v73l-2 26h-1l-1-6-4 1h-3l2-2 1-119z" fill="#A59796"/>
<path transform="translate(1125,1052)" d="m0 0 9 3 15 8 11 8 12 11 10 13 8 16 4 9 4 19v5h-3l-1 4v4h-2l-3-14-6-18-8-16-9-13-11-12-15-11-17-8-14-4 4-2 5 1 14 5 9 5h2l-6-6-11-4z" fill="#9F8E8E"/>
<path transform="translate(881,648)" d="m0 0 9 3 4 2 1 6 2 4 5-2-1-6 1-4 3-2 2 7v8l-2 9-4 5-9 7-2-1 1-2-7 1-9-3v-2l-7-3 1-8 1-2-2-1 2-8h2l1-3 5-3z" fill="#FB3225"/>
<path transform="translate(1334,477)" d="m0 0 6 1 11 9 7 7v2h2l8 12 7 14 2 8v7l-5-2-3-2v-2l-3-1-7-9-12-14-14-13-1-4v-8z" fill="#F9362B"/>
<path transform="translate(718,1406)" d="m0 0v3l-2 4 6-1 4 3v6h-2l1 3-8 7-10 14-6 13-3 11-1 10-4-1-3-5-1-7v-9l2-11 5-13 8-12 9-10z" fill="#F93529"/>
<path transform="translate(1496,788)" d="m0 0h3l3 6 3 2 5-1 8-4 2 1-7 4-3 6-3 2-1 5 6-1 7 2 7-3 3 1-11 5-6 3-2 4v11l3 32v10h-2l-2-27-1-2-2 4-2 5h-2l1 6-1 1-1 7-1 23-2 1v-45l-2-49-1-8z" fill="#ED3F43"/>
<path transform="translate(1060,799)" d="m0 0 3 1-6 7-11 11-8 7-10 8-13 12-7 3-7 6-5 5-26 20-8 7-10 8-9 7-4 3-5 1 2-5 12-11 15-13 14-11 11-8 11-9 8-5 8-6 6-7 9-7 13-11 12-9z" fill="#AA9E9D"/>
<path transform="translate(1547,847)" d="m0 0 1 2 7-1 9 3v3h3v5l2 1v4h2l1 8-3 6-7 6-4-1-3-2v-2l-8 1-3-1v-2h-2l1-3-1-4 10-3-2 5h3l1 3 1-8 2 3 1 1-1-7 1-4-9 2-5-2-5 4-2 2-6 1-1-7h2v-7l3-3 7-2z" fill="#FC3325"/>
<path transform="translate(513,1292)" d="m0 0h2l1 4 6-2 3 2v8l-3 5-8 5-9 10-8 14-6 13-4-1v-8l4-19 5-12 6-9 8-7z" fill="#FB3427"/>
<path transform="translate(812,1228)" d="m0 0h11l13 1 4 2 10 20-1 4-7-1-16-6-27-9-2-2h4l-1-4 1-3z" fill="#896A6E"/>
<path transform="translate(726,588)" d="m0 0 2 2v98l-1 7-4 2-2-1-9-1v-1l9-1-1-74 1-28z" fill="#A59796"/>
<path transform="translate(1090,1267)" d="m0 0h2l2 6 3 25 7 87 3 39v7l-4 1-1-1-1-27-4-37-4-41-3-33z" fill="#FCFCFC"/>
<path transform="translate(1058,1402)" d="m0 0 2 2 2 19v14l-4 16-6 11h-2l-1 4-5 5-8 7-11 7-16 5h-8v2l-20 1-20-2-11-3-15-6-8-5 3-1 14 6 17 4 10 1h14l16-1 17-6 12-4 10-5 6-7 2-2-1-2 3-2 2-1-1-3 4-10 3-18z" fill="#A49796"/>
<path transform="translate(1177,698)" d="m0 0 2 2-4 15-4 11-2 5-3-1v6l-11 24-1 2h-2l-2 6-4 7-2 1-2 4-10 14-3 4h-3v2l-5 4-6 9h-2l2-5h2v-3l-3 1 2-4 7-8 13-19 9-14 9-16 9-17 9-20z" fill="#A79B9A"/>
<path transform="translate(908,548)" d="m0 0h1l1 36v67l-4-4-11-4 3-1h3v-83l6 4z" fill="#A59897"/>
<path transform="translate(1044,974)" d="m0 0h1l2 12 24-1h33l18 3 17 5 10 5-4 1-7-2h-11l2-1-2-4-10-1 1 1 4 1v2l4 1-1 3 7 2-1 2-14-4-11-2-19-2v-1l-15-2v-2l-2 1h-15l-9-1-2-2z" fill="#EB4245"/>
<path transform="translate(1438,755)" d="m0 0h7l1 8v15l-4 9-1-2-1-15v-3l1-3-11-1-3-1v-2l-12 3-6 2v4h-2l1 3-2 5h-2l1 5 2 1v7l8 2v2l-9-1-2-1 1 22v20h-4l-1-7-1-22v-35l5-6 10-4 17-4z" fill="#E44A4D"/>
<path transform="translate(1031,373)" d="m0 0 16 6 14 8 1 4 5 2v2h2l2 3v4l-13-1-4 9v5l-2 4-4-1-2-12h-2l-5-15-8-16z" fill="#F1393D"/>
<path transform="translate(851,1218)" d="m0 0 3 4 8 17 7 11 11 15 12 11 10 6 6 9 14 8 5 2-3 1-23-11-10-7-11-9-14-14-2-5-5-5-6-10-5-14 1-5 2 4 6 13-3-10-3-8z" fill="#B29999"/>
<path transform="translate(996,858)" d="m0 0 2 1-7 6-13 10-8 6-8 7-10 8-14 12-4 4h-2v2l-8 7-15 15-7 6-1 2h-2l-1 3-6 5-4 3h-2v-2l4-4 7-10 11-13 13-13 7-8 7-6 5-5 11-10 8-6 2 1-15 13-9 8-2 4 7-3 7-6 14-11 8-7 12-9z" fill="#F6363A"/>
<path transform="translate(1313,1399)" d="m0 0 5 1 8 6 7 16 3 11v19l-2 7-2-1 1-6v-12l-1-8-2-4-3-4-2-4v-4l-4-1-2-7h-7l2 7 1 7-2 4-3 1v5h-2l-7-11-4-6-3-5 4-4 11-2 2-4z" fill="#EF393D"/>
<path transform="translate(938,803)" d="m0 0 1 3-6 5h-2v2l-8 7-3 4h-2l-1 3-7 6-1 2h-2l-2 4-10 10-9 11-4 5 5-2 17-17h2l-2 5-16 17-8 10-11 13-6 1 1-5 8-11v-2h-2v-2h2l2-4 10-13 11-12 7-8 17-16 10-10 6-3z" fill="#F7362E"/>
<path transform="translate(1560,1349)" d="m0 0 3 4 4 13 1 5v13l-4 16-5 8-6 4h-5l2-6 5-12 1-5v-14l-4-13-1-3 3-1 4-4h2z" fill="#EF3E41"/>
<path transform="translate(1108,744)" d="m0 0 1 3-8 13-10 13-13 15-11 12-17 17-11 9-11 10-9 7-4 2 6-7 10-9 8-6 16-15 7-7h-3l-17 13-8 7-2-1 13-12 11-9 25-25 4-5 5-4 2-3h2v-2h2l2-4 3-5h2l1-4z" fill="#F5363A"/>
<path transform="translate(866,1036)" d="m0 0 1 2-6 12-2 6 3-3-1 5-9 21-5 17-4 20h-1l-1-5-2 4-2-1-1 5-1 15h-2l-1 2 1-18 3-19 4-15 7-18h2v-2h2l2-6 9-17z" fill="#A29292"/>
<path transform="translate(1012,1356)" d="m0 0 6 1 4 3 10 3 10 7 11 16 4 9 2 11v20l-2 2-1-7-2 1v-7l1-3-2-9-9-20h-3l-5-5-6-5-5-2 2 5-1 2-4 1v-2l-6-1-2-2v-5l3 1-1-3 3-2-1-3-5-2z" fill="#F4373A"/>
<path transform="translate(1189,1027)" d="m0 0 5 5 7 8 12 18 8 16v2l-3 1-2 2-2-3-2 2 4 11v7l-3-1-4-7-2 1-2-5-3-4-4-6-1-4-2-1h3l4 5v2h2v-10l-4-8-7-9 1-2 7 6-3-5 2-4-3-5-8-10z" fill="#F23539"/>
<path transform="translate(1513,892)" d="m0 0h1l1 5v32l-2 41-1 6-2-3-1-3-1-2 2-7v-5l-4-2-1-5 1-6-1-5-1-4-3 4-3 9-2 2v-22l2-13h2v2l4 2 3 5h-2v2h2l1 2 4-1v-15z" fill="#ED3E41"/>
<path transform="translate(1040,707)" d="m0 0 3 1v2l-8 6-5 5-3 5h-2l-2 5 2 1v-2h2l1-3h2v-2h2l2-4h2v-2l3 1-5 5-7 8-2 3-7 1v2l-5 3-5 5-8 7-5 6-5 1-4 3h-2v2l-9 6v-4l8-8 7-8 8-9 10-5 4-1-1-1-1-2 4-4 11-9 9-9z" fill="#FA3529"/>
<path transform="translate(1332,490)" d="m0 0 2 4 2 2 1 20 1 36v35l-1-2-6-2-7-4 2-1 9 4-2-12-2-14-1-14v-37l1-12z" fill="#A59897"/>
<path transform="translate(1010,1445)" d="m0 0 2 1-1 2h4l-2 4-5 3-8 4-12 2h-16l-14-3-12-6-3-4 12 2 3-1 8 2 12 1 14-1 16-5z" fill="#FCFCFC"/>
<path transform="translate(1169,1212)" d="m0 0 1 3-6 11-4 1-4 3-21 5-12 5-9 3-10 2h-4l-6 2 1-4 3-3 11-4 11-3 12-5 15-6 7-2 4-1 5-1 3-1 2-4z" fill="#B7B2B2"/>
<path transform="translate(1174,1251)" d="m0 0 1 2-3 4h-2l-2 4-5 6 4-2 7-6 2 1-10 9-10 7-8 3-4 4-32 16-8 3-6 1v5h-1l-1-13 9-2 1-2 4 1 1-2 5-2 7-2 6-1 6-3 3-3 11-7 9-7 11-9z" fill="#A89A9A"/>
<path transform="translate(1081,1171)" d="m0 0h1l3 22 1 10 1 22 2 18v41h-1l-2-30-2-35-1-5-1 15-2 1v9l1 11-2-4-5-26-1-7v-9h1v6h2l1-11 3 1 2 4v-12l-1-9z" fill="#EC4043"/>
<path transform="translate(697,809)" d="m0 0h1l-1 13v80l-2-2v-3l-2-1h2l-4-13-1-9v-38l2-18 2-7z" fill="#A69695"/>
<path transform="translate(1299,1487)" d="m0 0 2 2h5l-1 9-3 6-12 9-12 6-6 2h-4l2-4 5-6 8-7 4-2 2-4z" fill="#EE3E42"/>
<path transform="translate(945,1386)" d="m0 0 3 1-6 4-8 10-1 3v9l-1 6 2 6 5 9 2-1 2 7 4 1v2l3-1 3 2h3l2 4-6-1-13-6-4-2 3 6 2 3h-3l-3-2-1-4-5-8-3-10-1-10 2-12 3-7 1 2v3l4-5 3-1 6-7z" fill="#F53539"/>
<path transform="translate(1307,575)" d="m0 0h12l5 2 3 3 10 5v2h2v10l-4 9-1-3 1-4-3-3-1-5-4-6-2-2-9-2-6-1-3-1-12 3-5 5-3 7 4 2 1 9h-3l-1 3v3l-6-7-1-7 3-8 9-10 9-3z" fill="#EC4145"/>
<path transform="translate(908,1440)" d="m0 0 1 2h2l1 2 3 1 5 5 5 3 4 6 3 3 3 1v2l4 2 2 4 4 3v2l4-1 3 3 8 4 3 2-8-1-16-6-10-4-4-5-5-5-4-5v-2h-2l-5-9-2-6z" fill="#FD3325"/>
<path transform="translate(507,1103)" d="m0 0 3 1 6 10 2 4h2l4 9 3 3 3 2 1 4 2 1v2h2v2l3 1 2 3-1 1 5 4v2h2v2h2l4 6v2l3 1 4 5 2 5h2l5 5 6 9h-3l-12-11-9-10-12-14-14-19-13-21z" fill="#C73237"/>
<path transform="translate(1454,654)" d="m0 0 8 1 8 4 9 8 1 5-1 1-9-1-19-2-1-1v-11z" fill="#ED3A3E"/>
<path transform="translate(1101,631)" d="m0 0 3 3-1 4-10 18-6 9-1-3 2-4-4-1-3 2-1 3h-2v3l4-2-1 4-4 4v-2l-7 1 2-4 11-16h3l7-12 2-1 1-2h3zm-32 39v3l-1 2 6-2v4l-4 2h-2l-1-2-6 6-2-1 7-8z" fill="#E9383A"/>
<path transform="translate(1418,1359)" d="m0 0 3 1-15 5-13 3-17 3-16 2-30 6-1 1-9 1-7 3-1 4 6 2 5 12 2 4-5-5-11-14-3-5v-2l13-3 23-4 56-9z" fill="#9D8B8B"/>
<path transform="translate(927,1478)" d="m0 0 6 1 9 4 15 4 14 2h35l6-2 12-2-2 3-13 4h-8v2l-20 1-20-2-11-3-15-6-8-5z" fill="#A59897"/>
<path transform="translate(1573,767)" d="m0 0h1l1 57v26l-4-2-7-1v-1l5-1v-57l-2-4-2-2 5-3h2z" fill="#A59897"/>
<path transform="translate(601,696)" d="m0 0 5 1-1 57-2 8h-1v-9l-4-2-4-4-6-2 2-1 10 2v-42z" fill="#D75658"/>
<path transform="translate(1037,448)" d="m0 0 2 1-2 6 1 2-1 2h3l-2 7h-2v2h-2l1 4h-3l-1 7-3 3h-2l-2 6h-2l-1 6-3 1v3l-3-1h2l-1-6h-2l2-6 10-15 9-17z" fill="#EF3C40"/>
<path transform="translate(1056,535)" d="m0 0 5 1-2 4-16 13-4 3h-2v2l-8 6h-2v2h-2l-2 4-3 4-2-1 1-2h-2l2-7 5-2 1-3h2l2-5 6-4h3v-2l5-4 2-2 4-2z" fill="#F6363A"/>
<path transform="translate(1153,1241)" d="m0 0 2 1-5 4-14 8-13 5-5 2-1-2-8 1-8 3-5 5h-1v-6l7-7 39-8 10-4z" fill="#896A6E"/>
<path transform="translate(1055,696)" d="m0 0 7 1-6 8h-2l-2 4-6 7-5 4-7 8-5 5h-2l2-4 9-9-2-1v2l-4 4h-2v2l-3 3h-2v2l-3-1 3-5h2l2-5 5-5 5-4 4-2v-2l-2-1 4-1v-3l3 1 2-4z" fill="#F4373B"/>
<path transform="translate(911,1380)" d="m0 0 2 2-6 11-4 16v25l3 17-3-1-4-10-2-10v-19l4-16 1-2h2l1-5z" fill="#B1A5A5"/>
<path transform="translate(1060,799)" d="m0 0 3 1-6 7-11 11-8 7-10 8-13 12-2-1 8-9 1-2-4 3-2-1 9-8 11-9 15-12z" fill="#A59897"/>
<path transform="translate(938,803)" d="m0 0 1 3-6 5h-2v2l-8 7-3 4h-2l-1 3-7 6-1 2h-2l-2 4-10 10-9 11-2 3-4 1-3 3 1-5 9-10 7-8 9-10 16-15 10-10 6-3z" fill="#F53A31"/>
<path transform="translate(693,1440)" d="m0 0h2l1 6 2 1 1 8 3-1-3 11-2 14-4-1-3-5-1-7v-9l2-11z" fill="#E7474A"/>
<path transform="translate(493,1317)" d="m0 0h4v2h2v-2h2l-1 5 2 3 2 1-6 10-7 15-4-1v-8l4-19z" fill="#EC4145"/>
<path transform="translate(866,1259)" d="m0 0 3 1 5 6 8 7 5 4-7-9-4-5 4 2 12 11 10 6 6 9 14 8 5 2-3 1-23-11-10-7-11-9-14-14z" fill="#A08F8F"/>
<path transform="translate(1567,1058)" d="m0 0h3v3l2 1v7h-2l-2 6-2 2 1-7v-3l-1-4-4 10h-2l-1 6-4 4-1 4-5 4-5-1-1-3 8-11h2l3-7 6-5 1-2h2v-2h2z" fill="#FC3325"/>
<path transform="translate(1179,1109)" d="m0 0 7 4v2h2l1 6h2v2h2l1-3 4 19v5h-3l-1 4v4h-2l-3-14-6-18-4-9z" fill="#896A6E"/>
<path transform="translate(1027,1427)" d="m0 0h1v6l-4 8-7 8 5-4 4-5 3-3 2-4h2l-2 10-3-1-1 7-3 4h-3v2l-8 3h-6l1-2h2l-2-2 5-3 2-3h-4l-1-2-2-1 10-6h4l4-8z" fill="#ED373B"/>
<path transform="translate(1192,1047)" d="m0 0 4 4 7 10 2 5v7l-1 3h-2l-7-9-12-13-5-6 4 2 4 3h2l1-3h3z" fill="#A59897"/>
<path transform="translate(1438,755)" d="m0 0h7l1 8v15l-4 9-1-2-1-15v-3l1-3-11-1-3-1v-2l-4-1 3-2z" fill="#E84649"/>
<path transform="translate(997,1083)" d="m0 0 1 2-2 4 1-1 2 1-5 7h-2l-2 4-6 13-4-1-2 8h-2v-10l5-13 3-2 3 1 2-4z" fill="#896A6E"/>
<path transform="translate(1074,703)" d="m0 0v3l-8 12-18 22-12 14-10 10-7 8-8 7-9 9-11 9-5 3v-2l11-9 8-8 8-7 10-10 1-2h2l2-4 4-4h2l2-4 9-10 9-11 8-10z" fill="#A59897"/>
<path transform="translate(841,1110)" d="m0 0h1l-1 21-1 10-1 22h-1v-32l-1 4-1 21-3-3-1-4v-13l1-2h2l-1-4 1-14 2-4 2 2z" fill="#F5363A"/>
<path transform="translate(848,571)" d="m0 0h2l1 9-1 3h2v36l-1 16-2 3-1-3z" fill="#F6363A"/>
<path transform="translate(1125,586)" d="m0 0 4 2-1 10-5 18-10 24-4 8-2 5-2-1 1-5h2l2-6 5-12 5-13 3-10v-7l-8 16-1-3 4-10 5-14h2z" fill="#F6363A"/>
<path transform="translate(510 1e3)" d="m0 0 2 1 4 24 8 24 2 5-4-1-5-6-2-7-3-9-1-9-1-1-1-15z" fill="#C2353A"/>
<path transform="translate(1356,1163)" d="m0 0 2 1-8 7-23 16-11 7-17 10-18 9h-2l1-3 16-8 10-6 11-6 8-5h2l1-3 24-16z" fill="#9C898A"/>
<path transform="translate(1057,1429)" d="m0 0 1 4-2 13-4 11-2 5-6 8-7 6-7 3-3-1 15-14 9-14 3-9 2-11z" fill="#F5363A"/>
<path transform="translate(492,994)" d="m0 0h1l1 23v32l1 7-1 2h-2l-2-13-1-12v-19z" fill="#E54A4D"/>
<path transform="translate(525,933)" d="m0 0h2l-7 21-1-2h-3l-5 9-5 3-2-2 7-12 7-11 5-5z" fill="#C53136"/>
<path transform="translate(643,1241)" d="m0 0 6 2 1 4-7 2-23 2-36 6v-2l37-9h10l14-1z" fill="#A89C9C"/>
<path transform="translate(1012,612)" d="m0 0 1 4-2 9-1 9v65h-2l-1-12-1-35v-18l4-16z" fill="#957E80"/>
<path transform="translate(1440,1302)" d="m0 0h46l7 1v1h-48l-18 2-3 1-1 2-12 3-5 2-7 1-13 5-4-1 7-3 20-7 13-4z" fill="#A59897"/>
<path transform="translate(1123,598)" d="m0 0h1v8l-6 19-5 12-5 10-1-3 4-8 3-16-2 1 2-6 8-16z" fill="#A59897"/>
<path transform="translate(1429,1353)" d="m0 0m-3 1h3v2l-18 6-25 5-44 7h-6v-1l25-5 37-6 17-4z" fill="#F6363A"/>
<path transform="translate(1174,1251)" d="m0 0 1 2-3 4h-2l-2 4-5 6 4-2 7-6 2 1-10 9-10 7-2-1 5-4h2v-2l-12 7-13 6v-2l10-6 11-8 7-6 8-7z" fill="#A39494"/>
<path transform="translate(1223,1083)" d="m0 0 2 2 5 21 1 11v17l-2 17-1 5h-1v-45l-4-25z" fill="#DC5457"/>
<path transform="translate(1015,1358)" d="m0 0 6 4 3 3 4 2 5 5v2l-6-2-2-1 2 5-1 2-4 1v-2l-6-1-2-2v-5l3 1-1-3 3-2-1-3-3-1z" fill="#FB3225"/>
<path transform="translate(1418,1359)" d="m0 0 3 1-15 5-13 3-17 3-16 2-15 3h-6v-1l13-3 8-2 38-6z" fill="#ADA4A3"/>
<path transform="translate(1101,631)" d="m0 0 3 3-1 4-5 8h-2l-2 5-4 4-3-5 2-5 4-7 2-1 1-2h3z" fill="#F13A3D"/>
<path transform="translate(1177,698)" d="m0 0 2 2-4 15-2 3-1-5-2 6-7 16-9 15-6 9v-3l15-28 9-20z" fill="#896A6E"/>
<path transform="translate(1102,1049)" d="m0 0h8l19 6 9 4 6 6-1 2-10-5-12-5-16-5z" fill="#BCB7B7"/>
<path transform="translate(877,1248)" d="m0 0h2l1 3 2 1v3l6 2 2 7v2l2 1-8-1 3 5-4-2-6-6 1-3-2-4 1-5-2-1h2z" fill="#FA3228"/>
<path transform="translate(848,494)" d="m0 0 5 4v45h-1l-2-17v-18h-2v13h-1v-15z" fill="#A59897"/>
<path transform="translate(1314,1407)" d="m0 0 5 1 2 7 4 1v2h-2v7l-5 1-4-5-1-8-1-5z" fill="#C0272D"/>
<path transform="translate(1113,1043)" d="m0 0 6 2 2 1v-2l4 1 1-2 5 1v3l5 1v3l4-1 9 4 3 5-5-2-15-4-11-5-10-3z" fill="#F53539"/>
<path transform="translate(984,800)" d="m0 0 2 1-12 11-5 7-6 6-11 7-6 4-2-1 16-15 14-11 7-7z" fill="#DB5658"/>
<path transform="translate(1170,1150)" d="m0 0 2 3 4 18 1 16-2 18-4 13-2 5-2-4 2-4 2-12 2-5 1-8v-13l-3-19z" fill="#A29393"/>
<path transform="translate(838,945)" d="m0 0v3l-12 17-6 9-3 2 1-7 8-16 4-5v5l5-4z" fill="#F3393D"/>
<path transform="translate(1058,1402)" d="m0 0 2 2 2 19v14l-2 10-2-4-2 2 1-12 1-8z" fill="#896A6E"/>
<path transform="translate(1189,1027)" d="m0 0 5 5 7 8 12 18 3 6-2 1-2 2-3-5v-4l-3-1-6-11v-3l-2-2-4-6-5-6z" fill="#C33338"/>
<path transform="translate(1020,833)" d="m0 0h2l-2 4-7 8-8 6-11 8-4 1 6-7 12-11 11-8z" fill="#FCFCFC"/>
<path transform="translate(726,645)" d="m0 0h1v40l-3 3-1-1v-21z" fill="#F6363A"/>
<path transform="translate(1370,834)" d="m0 0h17l11 3 7 1 1 1v11l-3 10-2 2 2-9v-5l-5-7-8-4-6-1h-16z" fill="#DF5154"/>
<path transform="translate(1054,702)" d="m0 0 1 3-9 11-5 4-7 8-5 5h-2l2-4 9-9 1-4 5-6 5-2v-2h2l1-3z" fill="#F73730"/>
<path transform="translate(646,1135)" d="m0 0 7 6 17 17 11 9 6 5 8 6 3 3-1 2-13-10-14-12-24-24z" fill="#9C898A"/>
<path transform="translate(1012,836)" d="m0 0 4 1-11 9-6 3-11 9-12 9h-3l11-10 13-10z" fill="#EB4245"/>
<path transform="translate(1572,793)" d="m0 0h1l1 27v22h-2l-1-3v-44z" fill="#F6363A"/>
<path transform="translate(1085,1225)" d="m0 0h2l2 18v41h-1l-2-30z" fill="#F6363A"/>
<path transform="translate(915,1382)" d="m0 0 2 3-4 6-4 8-4 12-3-1 3-15 4-8z" fill="#F63537"/>
<path transform="translate(1526,868)" d="m0 0 2 2 5-1 4 5 1 3-3 2h-3l-1 3-5-3-1-10z" fill="#FC3326"/>
<path transform="translate(908,539)" d="m0 0 2 2-1 7-1 13-1 2-4-2-4-4-6-10 4 2 4 3h5z" fill="#EB4246"/>
<path transform="translate(1159,1269)" d="m0 0h2v2l-11 7-16 9-6 2-4 1v-3l21-10 9-5z" fill="#FCFCFC"/>
<path transform="translate(1496,788)" d="m0 0h3l3 6 6 3-2 2h-4l-4-6 2 9-1 2v42h-1l-2-49-1-8z" fill="#A59897"/>
<path transform="translate(1017,772)" d="m0 0m-1 1m-1 1m-1 1m-1 1m-1 1m-1 1m-1 1m-1 1m-1 1m-1 1v3l-9 9-7 5-10 10h-2v2l-6 4-2-1 11-11 10-8 14-12z" fill="#F6363A"/>
<path transform="translate(1027,1427)" d="m0 0h1v6l-4 8-8 10-2-1 1-2h-4l-1-2-2-1 10-6h4l4-8z" fill="#A59897"/>
<path transform="translate(848,508)" d="m0 0h2l1 18 1 6v12l-4 2z" fill="#F6363A"/>
<path transform="translate(1557,1376)" d="m0 0h1v14l-2 14 2 1 3-1-2 4-6 4h-5l2-6 5-12z" fill="#A59897"/>
<path transform="translate(935,1439)" d="m0 0 5 2 14 6 4 2-5 2-9-2h-3l-6-7z" fill="#A59897"/>
<path transform="translate(994,692)" d="m0 0 2 2 3 31 2 12v5l-2 1-1-6-3-19-1-11z" fill="#DE5254"/>
<path transform="translate(827,639)" d="m0 0h13l3 1 2 2 2-2 4 1v6l-1-3-3 2 4 2 1 3-5-1-7-6-1-2h-15v-2z" fill="#EA4346"/>
<path transform="translate(897,1411)" d="m0 0h1v18h4l4 22-3-1-4-10-2-10z" fill="#9B8989"/>
<path transform="translate(1495,1332)" d="m0 0h21l12 3 3 3-8-2-17-2-16 1-19 4-4-1 15-4z" fill="#A59897"/>
<path transform="translate(847,463)" d="m0 0 4 1-2 1v15l1 2 1 11 3 4-1 2-5-5-1-2-1-12v-16z" fill="#EC4144"/>
<path transform="translate(977,1031)" d="m0 0 2 2-6 8-4 4-1 3h-2l-1 6-4 4-1-2 8-16 7-8z" fill="#C3353A"/>
<path transform="translate(551,866)" d="m0 0h1l2 14 3-1-2 7h-4v-2l-7 1 3-5z" fill="#BBA9A9"/>
<path transform="translate(955,1079)" d="m0 0h2v47h-1l-2-17v-22z" fill="#E14E51"/>
<path transform="translate(1013,491)" d="m0 0 2 1-4 9-3 3-4 12-3 6-5 2 2-6 12-23z" fill="#DF5153"/>
<path transform="translate(995,1037)" d="m0 0 3 1-7 9-6 4-9 9-2-1v-3l8-7z" fill="#C94044"/>
<path transform="translate(1247,1225)" d="m0 0 3 1-29 10-6 1h-12l-3-1v-2l22-1z" fill="#896A6E"/>
<path transform="translate(1058,1440)" d="m0 0h1v10l-7 14-5-1 3-3 2-1-1-3 4-10zm-10 24m-2 1 2 1z" fill="#9D8B8B"/>
<path transform="translate(494,889)" d="m0 0 2 1-1 3 2 1v6l-1 6 7 3v1l-11 1v-20z" fill="#E34B4E"/>
<path transform="translate(1124,606)" d="m0 0 1 4-6 16-12 27-2-1 1-5h2l2-6 5-12 5-13 3-9z" fill="#F4383C"/>
<path transform="translate(1574,824)" d="m0 0h1v26l-4-2-7-1v-1l5-1v-14l2-1 1 12h2z" fill="#A59695"/>
<path transform="translate(571,917)" d="m0 0h1v21l-1 26h-1l-1-8v-21z" fill="#EA4447"/>
<path transform="translate(916,858)" d="m0 0h2v2l-7 6-6 8-4 1-18 18-2-1 21-21 8-7z" fill="#CE6567"/>
<path transform="translate(1423,1306)" d="m0 0m-4 1h4v2l-12 3-5 2-7 1-13 5-4-1 7-3 18-6z" fill="#EC4145"/>
<path transform="translate(1123,989)" d="m0 0 10 2 12 5 4 3-5-1-8-1h-9l2-1-2-4-4-1z" fill="#E7474A"/>
<path transform="translate(1096,646)" d="m0 0 2 1-6 10-5 8-1-3 2-4-4-1-2 1v-6l2-2h4l3 4z" fill="#F63535"/>
<path transform="translate(798,1021)" d="m0 0h1l1 8-2 1-1 4-2 24h-1l-1-11 3-25z" fill="#C23C41"/>
<path transform="translate(1356,1163)" d="m0 0 2 1-8 7-19 13-3-2 24-16z" fill="#A49596"/>
<path transform="translate(1574,749)" d="m0 0h2l-1 18h-3v-10l-6 4h-3l8-8z" fill="#E05052"/>
<path transform="translate(1009,700)" d="m0 0h1l2 20 1 7 6-3 2 1-8 7h-3z" fill="#C36466"/>
<path transform="translate(582,1196)" d="m0 0 6 2 6 5 5 3 4 5 3 2v2l-5-2-7-6-11-9z" fill="#E54F4B"/>
<path transform="translate(1125,792)" d="m0 0 2 1-3 5-1 4-8 11h-2l2-5h2v-3l-3 1 2-4 7-8z" fill="#C5BEBF"/>
<path transform="translate(975,1111)" d="m0 0h1v9h2v-6l3-3 2 3-5 15-2 1-1-2z" fill="#F6363A"/>
<path transform="translate(577,1301)" d="m0 0h9l16 3 3 1v2l-21-3-15-1v-1z" fill="#D06667"/>
<path transform="translate(838,1129)" d="m0 0h1l-1 36h-1l-1-5v-25z" fill="#A59897"/>
<path transform="translate(1418,1359)" d="m0 0 3 1-15 5-13 3h-9l2-2 25-5z" fill="#A99E9E"/>
<path transform="translate(1164,1260)" d="m0 0 2 1-10 9-3 4-17 8v-2l10-6 11-8z" fill="#998586"/>
<path transform="translate(1126,522)" d="m0 0h1v12l-4 23h-2l4-34z" fill="#E04F52"/>
<path transform="translate(1089,494)" d="m0 0 1 4-4 10-4 6h-3l2-6 6-12z" fill="#F6363A"/>
<path transform="translate(1199,1234)" d="m0 0 1 3-20 20-2-1 10-11 4-5h2l1-3h2v-2z" fill="#A09091"/>
<path transform="translate(525,933)" d="m0 0h2l-6 18-3-1v-5l2-6h2v-2l-2-1z" fill="#E64240"/>
<path transform="translate(1456,1342)" d="m0 0 3 1-14 7-13 6h-3l2-4 9-4 6-1z" fill="#C87071"/>
<path transform="translate(1113,1054)" d="m0 0 5 1 14 5 6 4v2l-6-2-12-5-11-3z" fill="#9B8888"/>
<path transform="translate(1223,1083)" d="m0 0 2 2 5 21v6l-3-1-4-25z" fill="#E14E51"/>
<path transform="translate(723,697)" d="m0 0 4 1 5 10 1 4v10l-3 4v-14l-2-7-3-5z" fill="#DD5356"/>
<path transform="translate(1021,1485)" d="m0 0 3 1-5 3-10 3-11 1 3-3 11-3z" fill="#FCFCFC"/>
<path transform="translate(1172,713)" d="m0 0 2 1-2 10-3 7-4-1 1-5z" fill="#A08F8F"/>
<path transform="translate(1044,818)" d="m0 0m-1 1m-1 1m-1 1m-1 1m-1 1v3l-11 10-9 7-4 2 6-7 10-9z" fill="#F6363A"/>
<path transform="translate(1130,1056)" d="m0 0 7 2 7 7-1 2-10-5-7-3 4-1z" fill="#B7B2B2"/>
<path transform="translate(866,1259)" d="m0 0 3 1 5 6 8 7 6 5 1 4-8-6-15-15z" fill="#9C898A"/>
<path transform="translate(549,850)" d="m0 0h2v16h-2l-1-4-3 1 1-9z" fill="#CA3A3E"/>
<path transform="translate(1084,656)" d="m0 0 1 2h3l-2 7-4 1v-3l-5 3 1-4h2l1-4z" fill="#FC3327"/>
<path transform="translate(1333,1376)" d="m0 0h6l-3 2-7 2-9 1-7 3-2 3-2-5 14-4z" fill="#B7B2B2"/>
<path transform="translate(1071,667)" d="m0 0v3zm-2 3v3l-1 2 6-2v4l-4 2h-2l-1-2-6 6-2-1 7-8z" fill="#E94547"/>
<path transform="translate(997,1362)" d="m0 0h8 3l-1 6-5 1-6-3z" fill="#F7382D"/>
<path transform="translate(726,588)" d="m0 0h1v14h-4l-1-7 1-6z" fill="#EE3E42"/>
<path transform="translate(602,697)" d="m0 0 3 1v18h-3z" fill="#C1343A"/>
<path transform="translate(1145,1280)" d="m0 0 2 1-14 8-13 6-3 1 2-4 7-3 3-2 9-3z" fill="#9B8889"/>
<path transform="translate(1572,767)" d="m0 0h1v8l-1 4-4 3h-3v2l-3 1 2-4 5-6z" fill="#F2393D"/>
<path transform="translate(688,710)" d="m0 0 2 1 1 5 1 4-3 6-3-4v-7z" fill="#EB4346"/>
<path transform="translate(1312,1388)" d="m0 0 6 2 5 12 2 4-5-5-8-10z" fill="#A19292"/>
<path transform="translate(1174,1200)" d="m0 0h1l-1 10-5 13-2-4 3-7 3-9z" fill="#9A8687"/>
<path transform="translate(966,815)" d="m0 0 2 1-15 14-3 4-6 2 6-7 8-7z" fill="#BE7979"/>
<path transform="translate(1105,649)" d="m0 0 1 4-2 6-4 9-6 5 2-5z" fill="#CB696B"/>
<path transform="translate(606,1215)" d="m0 0 4 1 8 6 7 4 1 4-6-3v-2l-5-2-6-4v-2l-3-1z" fill="#DA5B5D"/>
<path transform="translate(643,1241)" d="m0 0 6 2 1 4-7 2h-7l4-4h5z" fill="#A29293"/>
<path transform="translate(834,1111)" d="m0 0h1l1 12-1 11h-2l-1 2 1-18z" fill="#896A6E"/>
<path transform="translate(863,1038)" d="m0 0v3l-12 23-1-3 8-17z" fill="#FCFCFC"/>
<path transform="translate(820,678)" d="m0 0 6 2 10 3-4 2-11-2-3-3z" fill="#E7484B"/>
<path transform="translate(880,681)" d="m0 0 5 1 4-1 2 1v4l-3 1-8-1-2-3z" fill="#C12C31"/>
<path transform="translate(873,1264)" d="m0 0h3l7 6 5 7h-3l-9-9-3-2z" fill="#BEB9B9"/>
<path transform="translate(866,1036)" d="m0 0 1 2-6 12-2 5-3-1 2-6 7-11z" fill="#AA9F9F"/>
<path transform="translate(847,463)" d="m0 0 4 1-2 1v11l-1 4h-2v-16z" fill="#D8595B"/>
<path transform="translate(837,942)" d="m0 0h3l-2 4-7 8-2-1 2-8 1 2h2v-2z" fill="#A59897"/>
<path transform="translate(1006,1189)" d="m0 0h2l11 16-1 3-6-3 2-1-3-7-5-6z" fill="#D05659"/>
<path transform="translate(1353,850)" d="m0 0h2l4 9-4 1-1 3-2-5v-6z" fill="#E5494C"/>
<path transform="translate(942,836)" d="m0 0 2 1-7 8-8 5v-3z" fill="#D35F61"/>
<path transform="translate(1176,1226)" d="m0 0h3l1 3-3 1v2h-3v2h-3v3h-2v-4h2l2-5h3z" fill="#F6363A"/>
<path transform="translate(681,1168)" d="m0 0 11 7 6 6-1 2-13-10-3-2z" fill="#9F8E8E"/>
<path transform="translate(560,773)" d="m0 0 5 1 7 2h9l5 1-1 2h-10l-9-2-6-3z" fill="#D9585A"/>
<path transform="translate(1116,990)" d="m0 0h7l5 2 1 4-7-1v-2l-4 1v-2h-2z" fill="#FD3325"/>
<path transform="translate(516,1286)" d="m0 0m-1 1 2 2-13 13-2-1 9-10z" fill="#F03E3C"/>
<path transform="translate(602,1210)" d="m0 0 5 2 7 4 5 5 1 2-5-2-6-5-3-1z" fill="#FC3326"/>
<path transform="translate(897,878)" d="m0 0m-1 1m-1 1m-1 1m-1 1m-1 1m-1 1m-1 1m-1 1m-1 1m-1 1m-1 1m-1 1m-1 1m-1 1m-2 1 2 1-11 11-2-1 6-7z" fill="#CB3B40"/>
<path transform="translate(1085,773)" d="m0 0 1 3-1 2h-2l-2 4h-3l-1 3-1 2-4-1 3-3h2l2-4 4-5z" fill="#896A6E"/>
<path transform="translate(1426,1347)" d="m0 0 3 2-1 3-8 2-3-2v-2l7-2z" fill="#F6363A"/>
<path transform="translate(941,1387)" d="m0 0 2 1-6 7-5 3-3 3 1-6 3-3v2z" fill="#A59998"/>
<path transform="translate(1400,1312)" d="m0 0 4 1-15 6-7 1 3-3z" fill="#A59897"/>
<path transform="translate(601,1251)" d="m0 0 6 1v1l-23 4v-2z" fill="#A08F90"/>
<path transform="translate(1293,1204)" d="m0 0 4 1-16 8h-2l1-3z" fill="#9A8788"/>
<path transform="translate(938,803)" d="m0 0 1 3-6 5h-2v2l-3 3h-2l1-5 5-3z" fill="#FC3327"/>
<path transform="translate(911,1380)" d="m0 0 2 2-6 11-2 2-1-6z" fill="#9F8E8E"/>
<path transform="translate(1028,1433)" d="m0 0 1 3-6 9-7 6 2-4 7-9z" fill="#F6363A"/>
<path transform="translate(550,890)" d="m0 0h1l1 9 1 2h-3l-1 6h-1v-14z" fill="#D03136"/>
<path transform="translate(1143,775)" d="m0 0 1 3-12 16-2 1 2-6h2l2-4z" fill="#F7F6F6"/>
<path transform="translate(1109,1047)" d="m0 0 12 3 5 3-2 1-14-4z" fill="#A19292"/>
<path transform="translate(798,1021)" d="m0 0h1l1 8-2 1-1 4h-2l1-12z" fill="#C6363A"/>
<path transform="translate(916,858)" d="m0 0h2v2l-7 6-6 8-2-2 9-10z" fill="#D8595B"/>
<path transform="translate(1524,788)" d="m0 0 2 1 1 3-2 4-5-1v-2h2v-2l-2-1z" fill="#EF3E41"/>
<path transform="translate(1097,643)" d="m0 0 1 3h-2l-2 5-4 4-2-4 3-3 1 1z" fill="#FC3327"/>
<path transform="translate(915,1382)" d="m0 0 2 3-4 6-3 5-1-3 4-9z" fill="#FD3325"/>
<path transform="translate(1037,721)" d="m0 0 3 1-11 11h-2l2-4z" fill="#D75A5C"/>
<path transform="translate(967,1045)" d="m0 0 1 3h-2l-1 6-4 4-1-2 4-9z" fill="#C53A3E"/>
<path transform="translate(1092,638)" d="m0 0 1 2-7 11-2 1 1-5 5-8z" fill="#C7373C"/>
<path transform="translate(1131,449)" d="m0 0 4 1 10 13-1 2-7-8z" fill="#C63E42"/>
<path transform="translate(1164,1260)" d="m0 0 2 1-10 9-3 4-3-1 5-5z" fill="#978183"/>
<path transform="translate(582,1196)" d="m0 0 6 2 6 5v3l-4-2-8-7z" fill="#E1504F"/>
<path transform="translate(876,865)" d="m0 0 2 3-2 5-4 1h-2v-2h2l2-4z" fill="#E33B3D"/>
<path transform="translate(1096,646)" d="m0 0 2 1-6 10-5 8-1-3 7-11z" fill="#DF5053"/>
<path transform="translate(1126,522)" d="m0 0h1v12l-2 5h-1l1-16z" fill="#E94448"/>
<path transform="translate(550,1266)" d="m0 0v3l-4 2-10 3v-2l11-5z" fill="#C6474A"/>
<path transform="translate(808,652)" d="m0 0 2 1-1 7h-1l-1 8-2-3 1-9z" fill="#DB5558"/>
<path transform="translate(1022,1386)" d="m0 0 3 2 1 5-12-4v-1h6l2 1z" fill="#A59897"/>
<path transform="translate(1176,1030)" d="m0 0 4 1 9 9-1 3-4-4v-2h-2l-4-5z" fill="#E34C4F"/>
<path transform="translate(1008,847)" d="m0 0 2 1-6 7-5 2h-3l11-9z" fill="#BA7D7E"/>
<path transform="translate(1040,707)" d="m0 0 3 1v2l-6 5h-3v-3z" fill="#FC3326"/>
<path transform="translate(1315,614)" d="m0 0 8 2-1 2-7 2-3-4h3z" fill="#EB4245"/>
<path transform="translate(1337,1176)" d="m0 0h3v2l-9 6-3-2z" fill="#A19191"/>
<path transform="translate(1188,1245)" d="m0 0h2l-2 4-8 8-2-1z" fill="#9D8A8B"/>
<path transform="translate(1472,1126)" d="m0 0 2 3v4l5-1-3 3h-4l-1-7z" fill="#F6363A"/>
<path transform="translate(1013,491)" d="m0 0 2 1-4 9h-3l2-6z" fill="#E44B4D"/>
<path transform="translate(1113,1054)" d="m0 0 5 1 4 2v2l-13-3z" fill="#988284"/>
<path transform="translate(902,850)" d="m0 0 2 1-8 9-2-1 2-4z" fill="#EF403B"/>
</svg>
