<?xml version="1.0" encoding="UTF-8"?>
<svg version="1.1" viewBox="0 0 2048 2048" width="192" height="192" xmlns="http://www.w3.org/2000/svg">
<path transform="translate(1030,374)" d="m0 0 9 1 20 11 14 9 16 12 26 22 15 15 9 11 10 13 13 21 8 16 10 23 9 28 5 21 5 35 1 14v32l-3 31-5 25-9 25-13 28-8 14-8 13-12 17-11 14-12 14-14 15-19 19-8 7-12 11-9 7-13 11-3 3-1 4 3 37 4 35 18-2h38l18 3 18 5 22 11 12 8 9 7 10 9 9 9 10 15 8 16 5 16 4 26v30l-3 22-5 19-8 20-12 23-12 17-12 13-9 9-11 9-14 10-5 4 8-4 21-16 11-9 10-9 5-6 13-8 9-3 25-6 30-10 20-9 19-10 16-10 12-8 17-12 10-8 14-12 23-23 7-8 13-16 12-18 8-13 8-14 8-16 10-21 13-35 8-29 5-24 3-21 2-23 1-21v-46l-1-26 4 1 1 4 23-11 22-13 10-8 7-7 8-10h3l1 4-1 17v90l-2 11-6 9-9 6-6 2h-11l-10-5-6-7-2-5v-12l3-7 6-4 10-3h18l9 3v-67l-11 9-13 10-16 8-16 6-2 5 1 18 1 19v100l-3 36-4 27-6 31-8 30-6 18-12 29-3 11 13-8 12-11 11-9 13-12 10-9 7-8 11-14 11-18 8-17 8-26 6-23 4 1 2 10v22l-3 15-6 21-9 21-10 19-10 17-16 24-13 19-7 10-13 19-9 12-13 18-13 17-13 16-7 9-12 14-27 27-11 9-13 11-8 7-3 3 11-3 14-5 15-6 17-4 22-3h42l17 4 12 5 14 8 13 11 7 8 8 14 3 9 1 6v22l-4 12-6 8-5 4h-3l1-7 5-11 2-7v-15l-4-13-10-13-10-8-11-4-14-2h-20l-17 3-19 7-15 8-22 8-26 5-45 7-40 7-2 1 16 16 7 10 7 14 3 12v15l-3 16-7 14-8 11-9 10-10 9-10 7-13 6h-5l1-4 8-7 11-9 7-8 7-10 5-10 2-8 1-16-2-12-6-11-9-10-13-8-17-6-10-2h-7l-13 4-17 9-18 11-24 13-19 10-19 9-15 5-30 9-4 1h-11l-4 2v-2l-19 9-3-1 1-8 6-11 3-6 1-11-9 13-11 14-8 7-16 7-15 3h-48l-16-3-16-8-6-5-10-14-7-12-2-8v-6h-2v7l3 16v6l-5 1-9-3-38-19-23-13-21-10-16-5-5-1h-20l-15 2-16 6-9 6-5 4-9 12-7 15-6 22-5-5-1-6 1-11 4-16 8-14 8-10 10-10 14-11 17-13h2l-3-5-15-12-15-10-29-17-21-10-25-9-25-7-24-5-15-2h-44l-13 3-10 6-9 10-9 15-6 14h-2l-2-9 5-22 8-16 6-8 2-3h2l1-3 12-9 17-10 19-8 21-6 43-8 20-2h8v-2l-4-2-17-11-14-10-21-16-9-7-12-11-13-12-7-7-7-8-11-12-11-15-10-16-9-17-7-17-6-21-3-22v-21l2-21 4-20 7-17 9-16 6-8 5-5h1v6l-6 19-4 16-1 8v31l3 18 4 15 8 20 10 19 10 14 7 8-2-9-11-34-5-23-2-17v-29l5-42 7-44 2-14 3-9 8-13 12-28 14-30 5-10 4-4-3 18-9 35-6 29-5 36-1 11v21l2 24 4 26 6 24 9 27 9 20 9 16 12 17 12 16 12 14 13 14 8 7 7 7 14 11 13 10 26 17 18 10 15 8 30 13 36 12 14 4 3 2-3-6-6-9-8-21-10-24-8-22-8-27-5-27-3-34v-17l3-33 6-26 7-21 14-36 8-16 18-30 7-9 13-18 11-13 7-8 9-10 7-8 3-3h2l2-4 12-12 8-7 15-15 8-7 14-12 15-13 12-11 6-7-2-9-5-49-6-47-3-34v-26l3-23 4-15 7-19 12-23 10-16 7-11 8-14 6-15 4-16v-21l-4-12-8-15zm80 76v27l-3 21-5 16-7 13-12 13-20 16-17 12-10 9-11 11-10 16-5 11-3 16v43l3 44 1 13 1 2 5-6 11-9 24-24 9-11 8-10 13-19 7-11 12-22 10-23 8-28 5-23 2-14v-37l-3-17-6-20-5-9zm10 155 1 2zm-1 2-12 26-12 20-12 17-9 12-13 16-14 15-15 15-8 7-14 13v2h-2v2l-4 2-12 12-8 7-10 9-11 9-12 12-8 7-46 46-7 8-12 14-8 11-12 17-12 19-8 14-6 11-2 5 5-5 11-13 7-8 11-14 12-14 10-11 7-8 17-17 8-7 14-12 14-11 10-9 11-9 15-13 11-9 13-12 8-7 30-30 7-8 12-14 15-20 10-15 9-16 8-16 8-20 5-18 2-8zm64 80m-1 2 1 2zm-1 2 1 2zm-1 2 1 3zm-1 3 1 2zm-1 2-11 25-8 16-10 18-11 17-24 32-12 14-12 13-8 8-8 7-13 11-15 12-54 39-32 24-16 13-11 9-14 12-16 15-7 7-7 8-14 18-11 18-8 15-9 26-7 35v6l2-4 7-26 7-19 9-17 12-19 22-28 11-12 7-8 20-18 13-11 14-11 21-16 24-16 19-14 15-12 13-10 10-9 11-9 28-28 9-11 13-16 11-16 13-21 14-27 10-25 4-12zm-55 28m-1 2m-1 1-2 4 3-2zm-3 4-10 13-11 14-13 14-7 8-17 17-8 7-12 11-11 9-12 10-17 13-14 11-13 11-14 11-14 12-17 16-24 24-7 8-11 12-3 4 1 2 26-26 7-8 3-2v-2l4-2 10-10 8-7 10-9 14-11 26-20 17-14 10-8 11-9 10-8 15-14 27-27 7-8 12-14 10-14 8-12zm-117 78m-1 1m-1 1m-1 1m-2 1-2 3 4-2zm-3 3m-1 1m-1 1m-2 1-5 6 4-2 3-4zm-7 6-6 7 4-2 4-5zm-7 7m-2 1-4 5 4-2 2-3zm-5 5m-1 1m-2 1-1 2 3-1zm-2 2m-1 1m-2 1m-1 1m-1 1m-2 1m66 76-13 9-18 13-14 10-15 12-8 7-10 9-8 7-23 23-11 14-10 14-13 24-7 17-8 26-3 16-1 9v22l3 19 5 18 7 16 10 15 9 11 12 14 8 8 13 10 14 8 14 5 30 5 11 1h16l21-2 15-3 8-3 18-2 3-3v-7l1-4v-23l-6-37-6-39-4-23-6-52-2-7-9 2-10 5-13 10-9 8-8 10-6 10-5 12-1 5v16l5 15 6 10 9 12 6 9-11-4-11-8-7-6-11-14-9-14-8-18-4-14-2-14v-28l5-20 1-7 5-12 10-15 12-12 12-9 14-8 10-6 5-4-1-16-5-51zm-193 30m-1 1 1 2zm54 4m-1 1v3zm-2 3m-1 1m194 29-21 2-21 6-16 7-10 6-12 9-11 10-9 12-9 16v3l11-9 13-10 14-11 16-9 20-8 21-5 21-2h10l19 2 18 4 13 5 21 11 19 14 3 3h2v2l8 7 14 17 5 7 1-2-8-16-10-16-9-10-7-8-11-9-10-7-19-10-17-6-22-4-11-1zm-3 51-20 3-16 6-15 8-12 9-8 7v2l-3 1-8 11-5 11 1 3 7-13 14-15 15-10 16-8 13-5 17-3h30l17 3 15 5 14 7 12 9 11 10 9 11 9 14 8 17 1-3-5-14-8-15-7-9-2-3h-2l-1-3h-2v-2l-8-7-12-9-10-6-17-7-12-3-16-2zm-108 20m112 15-1 8 7 66 6 60 6 71 1 17 1 5h3v-24l-2-31 17-1 31-5 12-4 8-7 8-16 4-13 2-20-2-21-4-17-8-18-7-10-11-12-11-9-14-8-14-6-17-4-5-1zm-92 26 1 2zm-142 10 1 3zm13 117 5 12 10 17 5 6h2l2 4 15 12 13 8 5 3 2-1-13-10-8-6-10-9-8-8-9-14-6-10-3-4zm284 16m-2 1-9 8-3 3 5-2 8-7 1-2zm-8 1m-5 10m-210 34 1 2 2-1zm58 69-10 3-14 8-8 8-6 10-2 10 4-5 8-7 16-8 11-3 16-1 14 3 13 5 8 6 7 12 2 8-1 10-3 5-5 5-8 7-14 7-13 3h-14l-13-4-14-8-9-9-1 3 7 13 9 9 12 6 13 3h12l19-4 10-6 8-8 6-9 2-6v-12l-2-13-5-14-6-9-5-6-10-7-8-4-4-1z" fill="#C72B2E"/>
<path transform="translate(1194,628)" d="m0 0h1v6h4v38l-3 23-4 19-9 25-13 28-8 14-8 13-12 17-11 14-12 14-14 15-19 19-8 7-12 11-9 7-13 11-3 3-1 4 3 37 4 35 18-2h38l18 3 18 5 22 11 12 8 9 7 10 9 9 9 10 15 8 16 5 16 4 26v30l-3 22-5 19-8 20-12 23-12 17-12 13-9 9-11 9-14 10-5 4 8-4 21-16 11-9 10-9 5-6 13-8 9-3 25-6 30-10 20-9 19-10 16-10 12-8 17-12 10-8 14-12 23-23 7-8 13-16 12-18 8-13 8-14 8-16 10-21 13-35 8-29 5-24 3-21 2-23 1-21v-46l-1-26 4 1 1 4 23-11 22-13 10-8 7-7 8-10h3l1 4-1 17v90l-2 11-6 9-9 6-6 2h-11l-10-5-6-7-2-5v-12l3-7 6-4 10-3h18l9 3v-67l-11 9-13 10-16 8-16 6-2 5 1 18 1 19v100l-3 36-4 27-6 31-8 30-6 18-12 29-3 11 13-8 12-11 11-9 13-12 10-9 7-8 11-14 11-18 8-17 8-26 6-23 4 1 2 10v22l-3 15-6 21-9 21-10 19-10 17-16 24-13 19-7 10-13 19-9 12-13 18-13 17-13 16-7 9-12 14-27 27-11 9-13 11-8 7-3 3 11-3 14-5 15-6 17-4 22-3h42l17 4 12 5 14 8 13 11 7 8 8 14 3 9 1 6v22l-4 12-6 8-5 4h-3l1-7 5-11 2-7v-15l-4-13-10-13-10-8-11-4-14-2h-20l-17 3-19 7-15 8-22 8-26 5-45 7-40 7-2 1 16 16 7 10 7 14 3 12v15l-3 16-7 14-8 11-9 10-10 9-10 7-13 6h-5l1-4 8-7 11-9 7-8 7-10 5-10 2-8 1-16-2-12-6-11-9-10-13-8-17-6-10-2h-7l-13 4-17 9-18 11-24 13-19 10-19 9-15 5-30 9-4 1h-11l-4 2v-2l-19 9-3-1 1-8 6-11 3-6 1-5v-32l-2-12-8-20-7-11-8-8-3-5-16-9-4-2v-2l-14-2-12-3-12-1-16 3-11 4-9 4-10 5-14 12-10 11-6 10-2 1v2h-2l-1 7-8 20h-3v-3h-2l-1-4v-4l2-10h-2v-14l4-17 4-9 6-3v-7l2-2 4 1 2-6v-7l6-2-3-3-4-2-1-5-3-10-4-2v-2h-2l-1-4-2-1 1-2-7-8h-3v-4l-4-8-2-5 1-2 6 1 12 9 18 11 2 2 7 1 20 8 13 4 20 4 15 2 31 1h32l28-4 9-2-1-3-1-13-7 5-14 2h-10l-8 1-18 1-29-2-7-2-14-5-4-7v-4h9l11 1h16l21-2 15-3 8-3 20-2v-9l1-4v-23l-6-37-6-39-4-23-6-52-1-7-14 5-12 8-14 12-8 10-6 10-5 12-1 5v16l5 15 6 10 9 12 5 7v2l-7-1-10-6-13-11-11-14-9-14-8-18-4-14-2-14v-28l5-20 1-7 5-12 10-15 12-12 10-8 13-8 13-7 5-4-1-16-5-51-9 5-13 10-16 11-13 10-14 11-14 13-8 7-8 8h-2l-2 4-10 10-11 14-10 14-13 24-7 17-8 26-3 16-1 9-1 26-1 7 3 6v6l1 3h-2l1 4h-2l1 4-2 3-1 6-4 1-4-4-5-19-3-13-1-6v-20l2-20 3-18 6-22 2-5h2l2-9 3-7 2-1 4-12 6-9 4-1 2-5 9-12 7-9h2l2-4 5-6 5-4 5-5 4-2 1-3h2l2-4 4-4h2l2-4 8-7 4-4 5-4h2v-2l14-10 12-9 16-13 13-9 11-8 10-7h2v-2l10-7 8-6 11-8 5-5 10-8 15-16 24-24 9-11 11-13 8-11 10-14 11-19 8-16 6-14 7-24 5-21 1-16 2-18v-8l2-9zm-122 366-21 2-21 6-16 7-10 6-12 9-11 10-9 12-9 16v3l11-9 13-10 14-11 16-9 20-8 21-5 21-2h10l19 2 18 4 13 5 21 11 19 14 3 3h2v2l8 7 14 17 5 7 1-2-8-16-10-16-9-10-7-8-11-9-10-7-19-10-17-6-22-4-11-1zm-3 51-20 3-16 6-15 8-12 9-8 7v2l-3 1-8 11-5 11 1 3 7-13 14-15 15-10 16-8 13-5 17-3h30l17 3 15 5 14 7 12 9 11 10 9 11 9 14 8 17 1-3-5-14-8-15-7-9-2-3h-2l-1-3h-2v-2l-8-7-12-9-10-6-17-7-12-3-16-2zm-108 20m112 15-1 8 7 66 6 60 6 71 1 17 1 5h3v-24l-2-31 17-1 31-5 12-4 8-7 8-16 4-13 2-20-2-21-4-17-8-18-7-10-11-12-11-9-14-8-14-6-17-4-5-1zm-92 26 1 2zm155 143m-2 1-9 8-3 3 5-2 8-7 1-2z" fill="#C72B2E"/>
<path transform="translate(1572,749)" d="m0 0h3l1 4-1 17v90l-2 11-6 9-9 6-6 2h-11l-10-5-6-7-2-5v-12l3-7 6-4 10-3h18l9 3v-67l-11 9-13 10-16 8-16 6-2 5 1 18 1 19v100l-3 36-4 27-6 31-8 30-6 18-12 29-3 11 13-8 12-11 11-9 13-12 10-9 7-8 11-14 11-18 8-17 8-26 6-23 4 1 2 10v22l-3 15-6 21-9 21-10 19-10 17-16 24-13 19-7 10-13 19-9 12-13 18-13 17-13 16-7 9-12 14-27 27-11 9-13 11-8 7-3 3 11-3 14-5 15-6 17-4 22-3h42l17 4 12 5 14 8 13 11 7 8 8 14 3 9 1 6v22l-4 12-6 8-5 4h-3l1-7 5-11 2-7v-15l-4-13-10-13-10-8-11-4-14-2h-20l-17 3-19 7-15 8-22 8-26 5-45 7-40 7-2 1 16 16 7 10 7 14 3 12v15l-3 16-7 14-8 11-9 10-10 9-10 7-13 6h-5l1-4 8-7 11-9 7-8 7-10 5-10 2-8 1-16-2-12-6-11-9-10-13-8-17-6-10-2h-7l-13 4-6 3-2-1 7-9 5-3 1-7h3l1-3 5-5 1-9 6-9h2l2-6 8-13 6-12 3-5v-7l-1-3 1-9 1-1 3-16 3-3h2v-10l2-4h3l3 1v6l-3 4 6-1 3-6 3-1-1-11 3-5v-6l-1-4h2l1-12h-2l-2-8-7-2-2-6-2-3v-4h-3v-2l-6 2-4 1-2 4-3 2-2 5-4 1-4 4-5-3h-5l-1-1-8-1 4-2 20-7 20-9 19-10 16-10 12-8 17-12 10-8 14-12 23-23 7-8 13-16 12-18 8-13 8-14 8-16 10-21 13-35 8-29 5-24 3-21 2-23 1-21v-46l-1-26 4 1 1 4 23-11 22-13 10-8 7-7z" fill="#C82B2E"/>
<path transform="translate(594,801)" d="m0 0 1 2-5 25-8 30-6 31-4 30-1 11v21l2 24 4 26 6 24 9 27 9 20 9 16 12 17 12 16 12 14 13 14 8 7 7 7 14 11 13 10 26 17 18 10 15 8 30 13 15 5-4 4-8 1h-7l-3 6-5 3-5 5-4 2-2 5-3 3 1 3-1 3-3 1 2 4-1 2h-2l2 23v7l2 1 1-2 3 5 1 8h2l1 5 3 5 1 8-1 3-3 1v-2h-3v2l2 2-3 4h-3l-1-2-3-1-1 5 3 7v3l3-1-2 6 1 10v3l-2 3-5 1-2 7-5 3-1 2-6 3-4 6h-2v2l4-1 4 1h7l4-1 4 1v2l2 1-15 2-16 6-9 6-5 4-9 12-7 15-6 22-5-5-1-6 1-11 4-16 8-14 8-10 10-10 14-11 17-13h2l-3-5-15-12-15-10-29-17-21-10-25-9-25-7-24-5-15-2h-44l-13 3-10 6-9 10-9 15-6 14h-2l-2-9 5-22 8-16 6-8 2-3h2l1-3 12-9 17-10 19-8 21-6 43-8 20-2h8v-2l-4-2-17-11-14-10-21-16-9-7-12-11-13-12-7-7-7-8-11-12-11-15-10-16-9-17-7-17-6-21-3-22v-21l2-21 4-20 7-17 9-16 6-8 5-5h1v6l-6 19-4 16-1 8v31l3 18 4 15 8 20 10 19 10 14 7 8-2-9-11-34-5-23-2-17v-29l5-42 7-44 2-14 3-9 8-13 12-28 14-30 5-10z" fill="#C72B2E"/>
<path transform="translate(1284,1211)" d="m0 0h5v2h3l3 7 2 6 6 2 2 8h2v13l-2 1 1 2v6l-3 6 1 5v7l-4-1-2 6-1 1h-6l2-6v-4l-4 1-1-1-2 13-4 3-3 16-1 1-1 10 1 2v7l-6 10-3 7-9 15-2 4-4 4-3 5-1 9-4 5-3 3h-3v7l-7 5-6 9-14 8-13 8-24 13-19 10-19 9-15 5-30 9-4 1h-11l-4 2v-2l-19 9-3-1 1-8 6-11 3-6 1-5v-32l-2-12-8-20-7-11-8-8-3-5-16-9-4-2v-2l-14-2-12-3-12-1-16 3-11 4-9 4-10 5-14 12-10 11-6 10-2 1v2h-2l-1 7-8 20h-3v-3h-2l-1-4v-4l2-10h-2v-14l4-17 4-9 6-3v-7l2-2 4 1 2-6v-7l6-2-3-3-4-2-1-5-3-10-4-2v-2h-2l-1-4-2-1 1-2-7-8h-3v-4l-4-8-2-5 1-2 6 1 12 9 18 11 2 2 7 1 20 8 13 4 20 4 15 2 31 1h32l28-4 8-2 1 2 3 27 4 43 7 49h3v-18l-2-34-5-61v-15l23-11 8-4 10-4 13-9 13-10 11-9 10-9 5-6 13-8 9-3 25-6 3-1h11l4 1 5 2h3 2l1-3 4-1 2-5 7-6z" fill="#962126"/>
<path transform="translate(804,1238)" d="m0 0 7 1 22 7 7 2 1 3h7l9 3 4 3v2l4 2 4 4 3 1v2h2l4 5 3 3-5-1 1 4 4 9 2 4h-2v2l3-1 3 3v2l4 2 1 3v2l1 4h2l6 7 3 10-1 2 6 2 1 3-5 2v7l-3 7-4-1-1 5-1 4-5 2-4 9-4 17-1 14h2v7 3l-1 8h2l2 3 4-9 3-10 2-4 1-4h2l-1-3h3l2-5 8-11 10-10 10-8 13-7 11-4 12-3 11-2 17 2 20 5v2l4 1 16 9 3 3 3 5 9 10 8 16 5 15 1 8v25l-8 11-9 12-9 10-16 8-18 4h-48l-16-3-16-8-6-5-10-14-7-12-2-8v-6h-2v7l3 16v6l-5 1-9-3-38-19-23-13-21-10-16-5-5-1-22-1-5-2-8 1h-7l-3-1v-2l9-9h3l2-4 4-2 2-6 5-2 2-4-1-1-1-12 2-3h-2l-4-10 1-3 1-2 4 1v2l3-1 2-3-2-2v-3l7 2v-7l-3-7-2-5 1-2h-2l-2-4-1-7-5-1-1-22-1-6 1-2h2v-3l-3-2v-2l3-1 2 1-1-3 1-5 3-1 2-5 7-5 5-5h2l2-6 1-1h8l9-2zm165 126-10 3-14 8-8 8-6 10-2 10 4-5 8-7 16-8 11-3 16-1 14 3 13 5 8 6 7 12 2 8-1 10-3 5-5 5-8 7-14 7-13 3h-14l-13-4-14-8-9-9-1 3 7 13 9 9 12 6 13 3h12l19-4 10-6 8-8 6-9 2-6v-12l-2-13-5-14-6-9-5-6-10-7-8-4-4-1z" fill="#962126"/>
<path transform="translate(972,1344)" d="m0 0h13l20 4 14 5 14 7 12 11 6 8 7 14 5 15 1 8v25l-8 11-9 12-9 10-16 8-18 4h-48l-16-3-16-8-6-5-10-14-7-12-2-8v-6h-2l-1 4h-1l-1-16 3-16 5-12 7-11 9-10h2v-2l12-9 12-6 18-6zm-3 20-10 3-14 8-8 8-6 10-2 10 4-5 8-7 16-8 11-3 16-1 14 3 13 5 8 6 7 12 2 8-1 10-3 5-5 5-8 7-14 7-13 3h-14l-13-4-14-8-9-9-1 3 7 13 9 9 12 6 13 3h12l19-4 10-6 8-8 6-9 2-6v-12l-2-13-5-14-6-9-5-6-10-7-8-4-4-1z" fill="#C82B2E"/>
<path transform="translate(1030,374)" d="m0 0 9 1 20 11 14 9 10 7 2 4 3 3 3 12 4 14 3 17 1 9v20l-4 14-6 12-8 11-11 12-9 8-13 10-12 11-7 7h-2l-2 4-8 8-9 15-5 12-2 8-1 12 3 4 2 9v12l-2 4-2 1-2 4-2 13-3 5-1 9h-1l-6-47-3-34v-26l3-23 4-15 7-19 12-23 10-16 7-11 8-14 6-15 4-16v-21l-4-12-8-15z" fill="#C72B2E"/>
<path transform="translate(1194,628)" d="m0 0h1v6h4v38l-3 23-4 19-9 25-13 28-8 14-8 13-12 17-11 14-12 14-14 15-19 19-8 7-12 11-9 7-13 11-3 3-1 4 3 37 3 29v6l-4 1v2h-2v-2l-6 2-3 3-2-8-6-60-9 5-13 10-16 11-13 10-14 11-14 13-8 7-8 8h-2l-2 4-10 10-11 14-10 14-13 24-7 17-8 26-3 16-1 9-1 26-1 7 3 6v6l1 3h-2l1 4h-2l1 4-2 3-1 6-4 1-4-4-5-19-3-13-1-6v-20l2-20 3-18 6-22 2-5h2l2-9 3-7 2-1 4-12 6-9 4-1 2-5 9-12 7-9h2l2-4 5-6 5-4 5-5 4-2 1-3h2l2-4 4-4h2l2-4 8-7 4-4 5-4h2v-2l14-10 12-9 16-13 13-9 11-8 10-7h2v-2l10-7 8-6 11-8 5-5 10-8 15-16 24-24 9-11 11-13 8-11 10-14 11-19 8-16 6-14 7-24 5-21 1-16 2-18v-8l2-9z" fill="#830E14"/>
<path transform="translate(876,1275)" d="m0 0 6 1 12 9 18 11 2 2 7 1 20 8 13 4 20 4 15 2 31 1h32l28-4 8-2 1 2 3 27 4 43v26l2 5v9l2 7-3 3h-9l-6-4-1 2-5-2-1-2-3-1-1 14-1 2-5-1-2-2v-24l-2-12-8-20-7-11-8-8-3-5-16-9-4-2v-2l-14-2-12-3-12-1-16 3-11 4-9 4-10 5-14 12-10 11-6 10-2 1v2h-2l-1 7-8 20h-3v-3h-2l-1-4v-4l2-10h-2v-14l4-17 4-9 6-3v-7l2-2 4 1 2-6v-7l6-2-3-3-4-2-1-5-3-10-4-2v-2h-2l-1-4-2-1 1-2-7-8h-3v-4l-4-8-2-5z" fill="#7C2227"/>
<path transform="translate(1065,1051)" d="m0 0h30l17 3 15 5 14 7 12 9 6 5 3 5 9 12 8 15 6 16 6 21 2 10 1 22-3 8-1 3h-2l-1 7-2 3-2 9-5 1v2h-2l-1 3-3-1 3-30-2-21-4-17-8-18-7-10-11-12-10-8-14-8-14-6-17-4-15-2 1 18 6 56v8l-2 1-3-2v-2l-2 1-1 8h-1l-3-22-1-11-5-5-1 2-2-7-4-36-1-7-14 5-12 8-14 12-8 10-6 10-5 12-1 5v16l5 15 6 10 1 1v6l3 1 4 5v4l-5-2v-2h-2v-2l-6-1v-2l-4-2-5-4v-2h-2l-7-14-3-9-2-17 1-13 6-16 11-21 11-14 7-6 5-3 15-10 12-5 19-5z" fill="#820D13"/>
<path transform="translate(846,461)" d="m0 0 5 2 7 11 9 15 12 14 22 22 6 9 2 13v99l-1 17-4 11-8 9-10 6h-8l-9-3-13-10-5-2-8 6-5 3-10 1-10-4-5-5-6-7-2-7 3-9 5-5 9-6 7-2h9l6 2 2 1-1-55v-57l1-40zm7 39-2 143v7l1 2h8l5-6 3-4 6-1h10l14 3 4 1v-84l-2-6-13-16-10-11-10-13-11-13z" fill="#C82B2E"/>
<path transform="translate(1082,403)" d="m0 0 5 2 12 10 6 29 2 15 2 4 1 8v16l-4 19-7 16-8 11-8 8-20 16-17 12-10 9-10 10-10 16-5 11-3 16v43l3 44 1 13-5 3h-2l-4-5-4-1-1-2-3-31v-18l3-5 2-13 4-6 1-2 1-1v-12l-2-9-2-1-1-4 2-15 5-14 8-14 9-10 4-5 8-7 9-9 14-11 11-9 8-8 9-12 5-8 6-16 1-5v-20l-3-23-3-10-4-13-2-7z" fill="#830F15"/>
<path transform="translate(1335,477)" d="m0 0 6 1 9 7 10 10 10 14 5 11 2 12-3 3-5-2-5-5-9-10-7-8-7-7-6-4 2 9 1 23v50l-1 6 1 2v7l-4 9-6 8-5 4-8 3-13-1-12-6-6-7-2-5v-7l6-10 7-6 9-3h8l12 3 8 4-2-50v-28l1-11v-11z" fill="#C72B2E"/>
<path transform="translate(1445,755)" d="m0 0h2v15l-4 13-6 10-4 3h-13l-15-4-1 45-1 3 2 5-2 12-5 9-7 7-5 2h-13l-10-4-6-5-4-6-1-8 4-10 9-6 4-2 11-1 11 2 9 3v-44l-1-4v-20l3-8 12-3 29-3z" fill="#C82B2E"/>
<path transform="translate(695,811)" d="m0 0h4l-2 86-1 14-4 12-6 8-6 5-5 2-13-2-8-5-7-8-2-4v-9l8-11 8-5 4-1h14l14 2-5-5v-48l1-14 3-10z" fill="#C82B2E"/>
<path transform="translate(723,589)" d="m0 0h5l1 1-1 102-1 5h-2l-1-1v2h2l6 13v9l-3 7-7 8-8 4-4 1-10-4-8-7-5-7-1-8 6-10 10-7 4-2 13-1v-78l1-26z" fill="#C82B2E"/>
<path transform="translate(865,1049)" d="m0 0 1 2-3 7h-2l-3 9-2 7h-2l-3 11-5 21-3 24-1 14v15l4 25 7 25 7 17 4 9 6 10 1 5 3 1 4 6v2l4 2 5 6 2 1v2l5 2 11 8 10 5 14 6 10 3 6 2 26 5 21 3 24 1h32l23-2 13-3 2-1 2-4 1 17-9 3-29 4h-41l-21-1-27-4-15-4-15-5v-2l9 2 13 4 18 4 24 2 38 1 24-1 16-2 8-3 2-2v-3h-8l-16 2-15 1h-37l-22-2-19-2-26-6-15-5-15-7-14-8-7-5v-2l-5-2v-2l-4-2-3-2v-2l-3-1v-4h-2l-6-7-4-4-1-8-5-10h-2l-4-4v-3h-2l-4-9-3-9-5-23-2-8v9l1 8-2-2-2-11-1-27 1-5-1-3 2-1v-9l-1-3h2l1-4 1-2h-2v-7l1-3h2v-8h2l-1-5 5-16 3-4v8l-5 26 7-26 7-19 9-17zm-26 67 1 3z" fill="#C83D3E"/>
<path transform="translate(846,461)" d="m0 0 5 2 7 11 9 15 12 14 22 22 6 9 2 13v22h-1l-1-11h-6l-13-17-12-13-10-13-11-13-1-1-1 15h-1v-6h-2l-2-4-2 3z" fill="#C72B2E"/>
<path transform="translate(1083,1279)" d="m0 0 2 1 2 16-7 5-14 2h-10l-8 1-18 1-29-2-7-2-14-5-4-7v-4l24 3 28-2 27-4 21-1z" fill="#962126"/>
<path transform="translate(602,696)" d="m0 0h3l1 9-1 28-1 18-1 10-3 6-6 7-7 3h-19l-7-3-5-4-3-5v-7l3-6 4-5 8-4 4-1h7l19 5 1-2 1-21v-25z" fill="#C72B2E"/>
<path transform="translate(1125,1059)" d="m0 0 9 3 14 9 11 9 3 5 9 12 8 15 6 16 6 21 2 10 1 22-3 8-1 3h-2l-1 7-2 3-2 9-5 1v2h-2l-1 3-3-1 3-30-2-21-4-17-8-18-7-10-11-12-10-8-14-8 3-1h7l5 1-3-2v-5l4 1 8 7 5 5 4 6 6 12v3l2 1 3 5v2h2l3 7 2 9v4l3 1 4 9 1 4h2l6-6v-13l-5-19-7-14-6-11-9-12-1-3-3-1v-2h-2v-2h-2l-4-4-8-6-14-8z" fill="#972126"/>
<path transform="translate(550,852)" d="m0 0h2l1 2v21l-2 8-11 9-28 14-15 5-4-1-2-6v-8l4-6 5-4 24-9 11-6 9-11z" fill="#C72B2E"/>
<path transform="translate(1181,681)" d="m0 0h2l1 7v7l-8 28-6 15-8 16-10 18-12 17-10 13-14 17-12 13-25 25-7 8-12 10h-2l-1 3-12 9-11 8-4 3h-2v2l-6 4-11 8-13 9-13 10-10 8-22 16-3 1v2l-8 6h-2l-2 4-3 1-1 3-8 7-5 6-8 7-3 1-2 4-4 2-2 4-5 6-5 5-10 13-5 8-3 1 2-5 22-28 11-12 4-5h2l2-4 20-18 13-11 14-11 21-16 24-16 19-14 15-12 13-10 10-9 11-9 27-27 9-11 13-16 11-16 13-21 14-27 10-25 3-10-2 1 2-12 1-8zm1 8 1 2zm-1 2 1 2zm-1 2 1 3zm-1 3 1 2z" fill="#C82B2E"/>
<path transform="translate(1010,588)" d="m0 0 1 2-4 11-1 7v8l1 1 4-5-2 11-1 8v43l3 44 1 13-5 3h-2l-4-5-4-1-1-2-3-31v-18l3-5 2-13 4-6 1-2 1-1v-12l-2-9-2-1-1-4 2-15 5-14z" fill="#9A2227"/>
<path transform="translate(978,765)" d="m0 0v3h-2l-2 5-4 5h-3l-1 3h-3v3l-4 4-3 1v3l-3 3-4 6h-2v3h-2l-1 3h-2l-2 4-3 1v3l-4 3h-2v2l-5 2-3 6-4 2-2 3h-3l-2 5-2 1v2l-8 6-1 2h-2v2l-2 2-3 1v2l-3 3-3 1 1 2h-3v2l-6 3-3 5 1 8-10 13-8 11-2-1-1-7h2l1-5-2-1 4-8 10-13 12-14 12-13 6-7 3-3h2l2-4 12-12 8-7 15-15 8-7 14-12z" fill="#C83B3C"/>
<path transform="translate(1082,506)" d="m0 0h4l-1 7-11 13-8 8-17 13-13 12-7 7h-2l-2 4-8 8-4 6-4 4-4 5-3-1 1-11 5-10 8-11 4-4h2l2-4 8-8 7-6h2v-2l5-1 5-5 7-6 6 1v-3h2v-3l4-3 5-1 5-7h2z" fill="#C83C3D"/>
<path transform="translate(995,1348)" d="m0 0 7 1 17 4 14 7 12 11 6 8 7 14 5 15 1 8v25l-3 4-6-1-2 6-3 5-4 7h-3l2-4v-3h2v-2h2v-4h2v-2l-2-1 3-1-1-3h2l1-9 2-5-1-3v-3l-1-9-4-13-4-5-2-6-7-12-5-4v-2l-5-2v-2l-4-2-13-8-12-5-3-2z" fill="#C83B3C"/>
<path transform="translate(1039,916)" d="m0 0h1l3 37 3 29v6l-4 1v2h-2v-2l-6 2-3 3-2-8-5-49v-9l12-7 3-1z" fill="#992126"/>
<path transform="translate(850,1085)" d="m0 0h1l-1 10-3 15-1 12v10l4 15 5 1 1-5 2-1 2-3v22l-1 7 3 6v6l1 3h-2l1 4h-2l1 4-2 3-1 6-4 1-4-4-5-19-3-13-1-6v-20l2-20 3-18z" fill="#952025"/>
<path transform="translate(861,1234)" d="m0 0 3 1 6 10 1 5 3 1 4 6v2l4 2 5 6 2 1v2l5 2 11 8 10 5 14 6 10 3 6 2 26 5 21 3 24 1h32l23-2 13-3 2-1 2-4 1 17-9 3-29 4h-41l-21-1-27-4-15-4-15-5v-2l9 2 13 4 18 4 24 2 38 1 24-1 16-2 8-3 2-2v-3h-8l-16 2-15 1h-37l-22-2-19-2-26-6-15-5-15-7-14-8-7-5v-2l-5-2v-2l-4-2-3-2v-2l-3-1v-4h-2l-6-7-4-4-1-8z" fill="#C83E3F"/>
<path transform="translate(1082,403)" d="m0 0 5 2 12 10 6 29 2 15 2 4 1 8v16l-4 19-2 3-1-8-7-1-2-5 4-14v-20l-3-23-3-10-4-13-2-7z" fill="#822025"/>
<path transform="translate(1066,1093)" d="m0 0 5 3v2h3l6 56v8l-2 1-3-2v-2l-2 1-1 8h-1l-3-22-1-11-5-5-1 2-2-7-2-17v-10l5-4z" fill="#972126"/>
<path transform="translate(847,505)" d="m0 0 3 3v2h2l1 6v45l-1 73-2 2-4-3-1-46v-57l1-21z" fill="#C82B2E"/>
<path transform="translate(999,1090)" d="m0 0 1 2-8 13-8 18-2 8 1 2 1 10-1 3 2 6 2 1 2-9 2-2 3-7 2-1-2 10v16l5 15 6 10 1 1v6l3 1 4 5v4l-5-2v-2h-2v-2l-6-1v-2l-4-2-5-4v-2h-2l-7-14-3-9-2-17 1-13 6-16 11-21z" fill="#992126"/>
<path transform="translate(1060,1130)" d="m0 0 5 1 3 5 3 27 2-4h2l3 3 3 1 5 51v7l-4 2-2-9-1-4-1-7-1-4-1-8h-2l1 12-1 2h-2l-2-9-5-32-4-23z" fill="#C52B2E"/>
<path transform="translate(1074,858)" d="m0 0 4 1-9 9-9 7h-2l-1 3-12 9-11 8-4 3h-2v2l-6 4-11 8-13 9-13 10-10 8-22 16-3 1v2l-8 6h-2l-2 4-3 1-1 3-8 7-5 6-8 7-3 1-2 4-4 2-2 4-5 6-5 5-10 13-5 8-3 1 2-5 22-28 11-12 4-5h2l2-4 20-18 13-11 14-11 21-16 24-16 19-14 15-12 13-10 10-9z" fill="#9F2327"/>
<path transform="translate(962,1348)" d="m0 0 4 2-4 4-7 2-6 4-1 2-8 4-12 7-1 2h-3v2l-3 3h-2v3l-4 3-3 8-3-1-1-4-4 5-5 13-1 5-1 21-2 1-1-16 3-16 5-12 5-8 8-7 12-12 11-7 16-6z" fill="#C83C3D"/>
<path transform="translate(1164,759)" d="m0 0h3v2h5l-2 6-8 14-8 13-12 17-9 12-4-1 1-9 6-8 7-10 5-9 2-6 4-6h2l2-5 5-6z" fill="#7F2227"/>
<path transform="translate(1194,628)" d="m0 0h1v6h4v38l-3 23-3 15h-1l1-12 2-16-1-2-1 2-5-1-3 13h-1l1-9 1-8 3-30v-8l2-9z" fill="#982126"/>
<path transform="translate(1068,546)" d="m0 0h7l-5 6-19 13-11 9-14 14-3 4-3-1v-7l3-5 4-5h2l2-4 7-6 5-2 14-9h3l2-4z" fill="#802227"/>
<path transform="translate(921,1300)" d="m0 0 5 1 9 4 14 5 25 5 15 2 31 1h32l28-4 8-2 1 2 2 16v11h-1l-2-10-1-7v-9l-25 5-39 1-31-1-19-1-21-5-16-6-12-5z" fill="#962126"/>
<path transform="translate(1455,654)" d="m0 0 6 1 14 7 6 8v2h-16l-11-3-5-4-1-4 3-5z" fill="#C52C2F"/>
<path transform="translate(1073,1190)" d="m0 0 3 1 2 9 2 13 2 4v6l4-2 1 5v20l-6-4-3-7-2-1-4-24v-5h2z" fill="#C83C3D"/>
<path transform="translate(1052,1402)" d="m0 0 3 3 2 4 1 4 1 5h2l-2-9v-5h3l2 12v25l-3 4-6-1-2 6-3 5-4 7h-3l2-4v-3h2v-2h2v-4h2v-2l-2-1 3-1-1-3h2l1-9 2-5-1-3v-3l-1-9-3-10z" fill="#C83C3D"/>
<path transform="translate(1039,916)" d="m0 0h1l1 16v13l-4-1-1-1-6 2-2 17-2-4-2-21v-9l12-7 3-1z" fill="#7F2126"/>
<path transform="translate(942,807)" d="m0 0 4 1-48 48-7 8-12 14-3-2 1-6 5-6h4v-2l2-1-1-2h4l1-3h2v-2l3-3h2v-2l6-6 5-2-1-3h3l2-5 3-1 3-4h3l2-4 4-4h2v-2l4-3h2v-3z" fill="#C82C2F"/>
<path transform="translate(1078,1261)" d="m0 0 5 5-1 3h2l1 9-6 1-2-1-1 4-21 1-27 4-28 2-21-3v-1l17 1h16l21-2 15-3 8-3 20-2v-9z" fill="#C82E30"/>
<path transform="translate(875,505)" d="m0 0 3 1 4 4v2h2v2l4 2v3l4 2 3 3 3 7 4 14h-2v3h-2v-3h-4l-4-8v-3h-3l-4-10-2-1-1-5-3-6h2v-2h-2v-3h-2z" fill="#962126"/>
<path transform="translate(851,524)" d="m0 0h1v22h-2v11l-3 1 1 44 3 6v19l-2 5 2-1v5l-5-3v-99l4-4z" fill="#C83D3E"/>
<path transform="translate(932,1303)" d="m0 0 9 2 13 4 18 4 24 2 38 1 24-1 9-1h13v1l-29 4h-41l-21-1-27-4-15-4-15-5z" fill="#C83738"/>
<path transform="translate(888,1428)" d="m0 0h4v2h2l2 10 2 2 2 11v6l-5 1-9-3-1-5 1-9z" fill="#871016"/>
<path transform="translate(842,1212)" d="m0 0 2 2 5 17 5 13-1 2-2-5-5-1v-2l-8-1-4-2-5-14 1-3v2l6 2 5-3 1-4z" fill="#C83D3E"/>
<path transform="translate(1028,1364)" d="m0 0 5 1 6 3 9 11 6 10 5 13 2 16h-2l-1-5-2-1-1-5-5-10-4-10-5-8-4-4v-2l-3-1z" fill="#C82B2E"/>
<path transform="translate(1074,858)" d="m0 0 4 1-9 9-9 7h-2l-1 3-12 9-11 8-4 3h-2v2l-6 4-11 8-13 9-4 3-2-1 5-5 12-8 19-14 15-12 13-10 10-9z" fill="#A22328"/>
<path transform="translate(1010,588)" d="m0 0 1 2-4 11-1 7v8l1 1 4-5-2 11-2 14-1 13h-1l-1-12-2-9-2-1-1-4 2-15 5-14z" fill="#942126"/>
<path transform="translate(984,1356)" d="m0 0 10 1 4 4-5 1h-3v2l-21 1-10 3-13 7h-2v-2h2l1-3h2l6-3 1-3 15-5h6l5-2h1z" fill="#C83B3D"/>
<path transform="translate(847,505)" d="m0 0 3 3v2h2l1 6v29h-1l-1-15-2 2-1 6h-1l-1 49h-1v-57l1-21z" fill="#C82D30"/>
<path transform="translate(1e3 686)" d="m0 0 4 1 2 19v12l-6 1-1-9-2-9v-7z" fill="#812227"/>
<path transform="translate(1103,633)" d="m0 0 3 1-2 5-8 14-6 8-4-1v-6l2-3 1-4h3v-2l-2-1h2v-2h2v-3l2-1 1-4h5z" fill="#C83C3D"/>
<path transform="translate(845,1078)" d="m0 0h1v8l-6 30-1 13-3 16h-1v-9l1-14-2-1v-7l1-3h2v-8h2l-1-5 5-16z" fill="#C83A3C"/>
<path transform="translate(953,1492)" d="m0 0h44l17 1-4 2-15 2h-14l-25-2-4-2z" fill="#C82B2E"/>
<path transform="translate(1064,1404)" d="m0 0h2l3 7 1 1v9l3 6-2 9v6l-5 1-2-2 1-12z" fill="#810D13"/>
<path transform="translate(865,1049)" d="m0 0 1 2-3 7h-2l-3 9-2 7h-2l-3 11-5 21-3 24-1 14-1 15h-1v-25l2-17 1-13 6-21 6-16 9-17z" fill="#C82B2E"/>
<path transform="translate(991,922)" d="m0 0 2 1-4 5-13 10-12 9-11 8-3 1v2l-8 6-2-1 4-5 11-9 18-14z" fill="#A02328"/>
<path transform="translate(1581,983)" d="m0 0 4 1 1 2v11l-2-2-1 11-2 4h-2l-1 4-2-1 1-6-1-5z" fill="#C83B3C"/>
<path transform="translate(1125,1059)" d="m0 0 9 3 14 9 11 9 3 5 9 12 8 15-1 3-4-6-6-11-9-12-1-3-3-1v-2h-2v-2h-2l-4-4-8-6-14-8z" fill="#9D2327"/>
<path transform="translate(1146,1244)" d="m0 0h3l-2 4-3 2-2 1-2 3-8 2 2-4-5 4-4 3-5 1 2-4 4-3v-2l-2-1v-2z" fill="#C82E31"/>
<path transform="translate(1203,1216)" d="m0 0 1 2-10 16-8 3-5 5-7 6 2-5 5-5 6-7 3-5 2-2 5-4z" fill="#C83C3D"/>
<path transform="translate(1181,681)" d="m0 0h2l1 7v7l-5 18-3 3h-2l2-9 1-4-2 1 2-12 1-8zm1 8 1 2zm-1 2 1 2zm-1 2 1 3zm-1 3 1 2z" fill="#C82E31"/>
<path transform="translate(1e3 1365)" d="m0 0 8 1 3 2 1 5 6 2 3 3 2 3v3l2 1-2 2-3-3v-3l-4-1v-2l-4-1-10-7-3-3z" fill="#C83C3D"/>
<path transform="translate(992,1498)" d="m0 0h16v2l-13 2h-27l-11-2v-1z" fill="#C82B2E"/>
<path transform="translate(1078,1261)" d="m0 0 5 5-1 3h2l1 9-6 1-2-1-1 4h-11v-1h10l1-14z" fill="#C83B3D"/>
<path transform="translate(959,1347)" d="m0 0m-4 1h4v2l-13 4-9 4-11 7-17 17v-3l9-10h2v-2l12-9 12-6z" fill="#C82B2E"/>
<path transform="translate(932,1388)" d="m0 0 1 3-3 9h-2v6 3l-1 3-4 1v-2l-2-1 1-4v-5l4-3 1-3h2l1-5z" fill="#C83C3D"/>
<path transform="translate(1087,1295)" d="m0 0h1l1 17-6 2h-9l3-2 5-2 2-2v-3l-8-1 1-2 9-3z" fill="#C83B3C"/>
<path transform="translate(1074,1276)" d="m0 0h2l-1 5-10 1-2 1h-8l-1-3 2-2z" fill="#C82B2E"/>
<path transform="translate(1032,893)" d="m0 0m-2 1 2 1-2 3h-2v2l-6 4-11 8-13 9-4 3-2-1 5-5 12-8 19-14z" fill="#A42428"/>
<path transform="translate(1058,1052)" d="m0 0h6l-4 2-15 4-12 5-15 10-4 2 4-5 11-7 3-3 16-6z" fill="#A22428"/>
<path transform="translate(895,843)" d="m0 0v3l-2 2-2 4-4 2-1 3h-2v3l-7 6-6 9-4 2 2-4 9-11 9-10 7-8z" fill="#C82B2E"/>
<path transform="translate(1461,663)" d="m0 0 4 1 5-1 1 2-1 2-5 2-1 2-8-1-2-1 1-3z" fill="#841F24"/>
<path transform="translate(1560,1402)" d="m0 0h2l-2 5-8 7h-3l1-7 4-4 5 1z" fill="#C83B3C"/>
<path transform="translate(818,1234)" d="m0 0 14 1 2 4-2 2-8-1-7-4z" fill="#C82B2E"/>
<path transform="translate(1181,681)" d="m0 0h2l1 4-7 18-2 1 2-12 1-8z" fill="#C83B3C"/>
<path transform="translate(550,865)" d="m0 0h1l-1 9-2 12-4 1 2-10 1-3-2-6z" fill="#C83E3F"/>
<path transform="translate(1038,1378)" d="m0 0 4 1 6 9 4 11-1 3-4-6-4-9z" fill="#C83E3F"/>
<path transform="translate(1146,1244)" d="m0 0h3l-2 4-3 2-2 1-2 3-8 2 2-4 8-7z" fill="#C83839"/>
<path transform="translate(1074,858)" d="m0 0 4 1-9 9-9 7-2-1 8-9z" fill="#AB262A"/>
<path transform="translate(1038,1364)" d="m0 0 5 2 3 2 6 10v2h2l6 15-1 3-7-16-8-11z" fill="#962126"/>
<path transform="translate(850,1085)" d="m0 0h1l-1 10-3 15-1 12-3-1 3-20z" fill="#962126"/>
<path transform="translate(865,1049)" d="m0 0 1 2-3 7h-2l-3 9-2 7h-2l-2 8h-2l3-10 8-16z" fill="#C12C2F"/>
<path transform="translate(1006,1188)" d="m0 0 5 5 8 11v2l-7-1-3-3 2-1 2 1-2-5-5-5z" fill="#C82D30"/>
<path transform="translate(1035,710)" d="m0 0 2 1-2 5-3 3v3h-3v2l-5-1 1-4 8-7z" fill="#C83B3D"/>
<path transform="translate(940,1391)" d="m0 0 2 1-5 7-3 7-4-2 1-5 7-7z" fill="#C83B3C"/>
<path transform="translate(931,994)" d="m0 0 3 1-6 6h-2l-2 4-12 12 1-4 2-3h2l2-4 4-4h2l2-4z" fill="#922529"/>
<path transform="translate(895,1007)" d="m0 0h2v2l-5 5-10 13-5 8-3 1 2-5 11-14z" fill="#AB272B"/>
<path transform="translate(691,1463)" d="m0 0h2l1 4 4-1-2 10-5-5-1-5z" fill="#C83234"/>
<path transform="translate(902,557)" d="m0 0h5l1 1v12l-3-1-2-7z" fill="#C83E3F"/>
<path transform="translate(838,1116)" d="m0 0 2 3-1 10-3 16h-1v-9z" fill="#C82B2E"/>
<path transform="translate(1131,1250)" d="m0 0 3 1-9 8-5 1 2-4z" fill="#C8383A"/>
<path transform="translate(1096,1265)" d="m0 0h10l1 3-10 2-1 3z" fill="#C83E3F"/>
<path transform="translate(1026,1388)" d="m0 0 3 2v2h2l1 8 1 3-4-1-1-3v-7h-2z" fill="#C83E3F"/>
<path transform="translate(922,1366)" d="m0 0 2 1-15 15v-3l9-10h2v-2z" fill="#C83234"/>
<path transform="translate(1461,663)" d="m0 0 4 1 5-1 1 2-1 2-6 2v-2l-6-1z" fill="#962126"/>
<path transform="translate(1058,872)" d="m0 0 2 1-3 5-8 6-2-1v-2l10-8z" fill="#A52529"/>
<path transform="translate(1006,912)" d="m0 0h2v2l-10 7-4 3-2-1 5-5z" fill="#A3262A"/>
<path transform="translate(951,952)" d="m0 0 2 1-3 5-8 6-2-1 4-5z" fill="#A22529"/>
<path transform="translate(1055,1388)" d="m0 0 2 3 4 10v3h-2l-5-13z" fill="#C8383A"/>
<path transform="translate(548,875)" d="m0 0h1v8l-1 3-4 1 2-10z" fill="#C83C3E"/>
<path transform="translate(1179,702)" d="m0 0 1 3-3 9-1 2h-2l2-9z" fill="#C83A3C"/>
<path transform="translate(1159,1081)" d="m0 0 6 5 7 9h-3l-10-12z" fill="#C82D30"/>
<path transform="translate(1550,1407)" d="m0 0h2l2 2 3 1-5 4h-3z" fill="#C82B2E"/>
<path transform="translate(1077,1466)" d="m0 0 4 2 1 2-5 1-3 1v-2l-3-1z" fill="#C23033"/>
<path transform="translate(1067,1314)" d="m0 0h13v1l-12 2h-5l1-2z" fill="#C83335"/>
<path transform="translate(953,1368)" d="m0 0 4 1-11 6h-2v-2h2l1-3h2z" fill="#C8393A"/>
<path transform="translate(856,1069)" d="m0 0 1 2-1 3h-2l-2 8h-2l3-10z" fill="#BA2A2D"/>
<path transform="translate(802,1226)" d="m0 0 10 2 2 4-12-4z" fill="#C82B2E"/>
<path transform="translate(1049,1476)" d="m0 0 1 3-2 3h-2l2-5z" fill="#C82B2E"/>
<path transform="translate(1025,1493)" d="m0 0 2 1-4 1z" fill="#C82B2E"/>
<path transform="translate(1014,1497)" d="m0 0 3 1z" fill="#C82B2E"/>
<path transform="translate(904,1454)" d="m0 0" fill="#C82B2E"/>
<path transform="translate(1012,1498)" d="m0 0 2 1z" fill="#C82B2E"/>
<path transform="translate(1034,1488)" d="m0 0 2 1z" fill="#C82B2E"/>
<path transform="translate(905,1457)" d="m0 0" fill="#C82B2E"/>
<path transform="translate(1033,1489)" d="m0 0" fill="#C82B2E"/>
<path transform="translate(1036,1487)" d="m0 0" fill="#C82B2E"/>
<path transform="translate(903,1453)" d="m0 0" fill="#C82B2E"/>
</svg>
